<svg width="2354" height="2354" viewBox="0 0 2354 2354" fill="none" xmlns="http://www.w3.org/2000/svg">
<g clip-path="url(#clip0)">
<circle r="57.6895" transform="matrix(-0.669443 0.742863 0.742863 0.669443 1969.97 1052.56)" fill="#F47A20"/>
<path d="M1930.37 1096.49C1941.73 1106.73 1956.73 1112 1972.07 1111.15C1987.41 1110.29 2001.83 1103.37 2012.15 1091.91C2012.68 1091.32 2013.19 1090.73 2013.7 1090.12C2016.42 1086.85 2018.77 1083.3 2020.73 1079.53C2019.9 1079.85 2019.08 1080.16 2018.23 1080.45C2018.22 1080.46 2018.2 1080.46 2018.17 1080.47L2018.15 1080.47C2017.27 1080.79 2016.39 1081.09 2015.52 1081.37C2015.3 1081.44 2015.09 1081.51 2014.88 1081.59C2014.05 1081.85 2013.21 1082.11 2012.37 1082.33C2012.13 1082.42 2011.9 1082.49 2011.66 1082.54C2011.02 1082.74 2010.36 1082.91 2009.71 1083.07C2009.27 1083.19 2008.8 1083.32 2008.36 1083.42C2007.69 1083.59 2007.03 1083.74 2006.36 1083.89C2005.92 1084 2005.5 1084.08 2005.05 1084.16C2004.48 1084.3 2003.91 1084.4 2003.33 1084.51C2002.83 1084.62 2002.32 1084.72 2001.81 1084.8C2001.11 1084.93 2000.4 1085.04 1999.68 1085.14C1999.38 1085.2 1999.08 1085.25 1998.76 1085.28C1998 1085.4 1997.23 1085.5 1996.45 1085.58C1996.04 1085.64 1995.63 1085.69 1995.2 1085.73C1994.75 1085.78 1994.3 1085.83 1993.85 1085.87C1993.01 1085.96 1992.15 1086.01 1991.3 1086.07C1991.19 1086.09 1991.09 1086.1 1990.98 1086.09C1990.16 1086.16 1989.33 1086.19 1988.5 1086.22C1987.94 1086.26 1987.39 1086.27 1986.85 1086.27C1986.24 1086.3 1985.64 1086.3 1985.04 1086.31C1984.69 1086.32 1984.35 1086.31 1984.02 1086.3C1983.22 1086.3 1982.41 1086.28 1981.61 1086.27C1981.19 1086.26 1980.77 1086.24 1980.35 1086.21C1979.76 1086.2 1979.18 1086.18 1978.6 1086.13C1978.04 1086.11 1977.48 1086.06 1976.93 1086.01C1976.43 1085.98 1975.93 1085.94 1975.45 1085.89C1974.81 1085.84 1974.19 1085.78 1973.56 1085.7C1972.93 1085.62 1972.28 1085.56 1971.64 1085.47C1971.35 1085.44 1971.06 1085.4 1970.77 1085.35C1969.87 1085.23 1968.98 1085.09 1968.09 1084.94C1966.98 1084.77 1965.88 1084.56 1964.79 1084.33C1964.31 1084.24 1963.84 1084.14 1963.37 1084.04C1959.54 1083.2 1955.76 1082.13 1952.07 1080.84C1951.54 1080.67 1951.02 1080.48 1950.51 1080.28C1949.94 1080.09 1949.37 1079.87 1948.81 1079.64C1948.35 1079.47 1947.88 1079.28 1947.41 1079.09C1946.89 1078.88 1946.38 1078.66 1945.87 1078.44C1944.01 1077.66 1942.18 1076.82 1940.38 1075.9C1939.93 1075.67 1939.48 1075.45 1939.04 1075.21C1938.74 1075.07 1938.47 1074.93 1938.19 1074.77L1936.82 1074.03C1934.96 1073 1933.14 1071.9 1931.34 1070.74L1930.13 1069.95C1929.94 1069.83 1929.77 1069.71 1929.58 1069.58C1929.1 1069.27 1928.63 1068.95 1928.17 1068.61C1927.47 1068.12 1926.77 1067.63 1926.09 1067.12C1925.9 1066.99 1925.73 1066.86 1925.55 1066.72C1925.08 1066.37 1924.61 1066.01 1924.14 1065.65C1923.68 1065.3 1923.21 1064.91 1922.75 1064.53C1922.42 1064.28 1922.1 1064.01 1921.77 1063.73C1920.71 1062.86 1919.67 1061.97 1918.65 1061.05C1918.13 1060.58 1917.62 1060.12 1917.14 1059.64C1916.87 1059.4 1916.62 1059.17 1916.36 1058.92C1915.47 1058.06 1914.61 1057.2 1913.76 1056.32L1913.73 1056.29C1913.52 1056.07 1913.3 1055.86 1913.1 1055.64C1912.54 1055.05 1911.99 1054.46 1911.43 1053.85C1911.41 1053.84 1911.4 1053.81 1911.38 1053.79C1911.39 1056.52 1911.58 1059.24 1911.97 1061.93L1911.97 1061.99C1911.97 1062.01 1911.97 1062.02 1911.98 1062.02C1913.89 1075.34 1920.39 1087.53 1930.37 1096.49Z" fill="#F47A20"/>
<path d="M1918.66 1061.05C1931.88 1072.98 1948.11 1081.08 1965.62 1084.5C1983.14 1087.92 2001.29 1086.53 2018.15 1080.47C2018.18 1080.47 2018.21 1080.47 2018.23 1080.45L2018.26 1080.45C2019.09 1080.15 2019.91 1079.84 2020.73 1079.53C2023.06 1075.03 2024.78 1070.25 2025.85 1065.31C2026.62 1061.74 2027.06 1058.11 2027.17 1054.46C2026.4 1054.48 2025.65 1054.49 2024.89 1054.49L2024.87 1054.49C2024.86 1054.48 2024.84 1054.48 2024.82 1054.48L2024.81 1054.5C2000.36 1054.57 1976.83 1045.57 1958.76 1029.24C1950.97 1022.22 1944.34 1013.99 1939.13 1004.88L1939.14 1004.87C1939.12 1004.85 1939.11 1004.82 1939.08 1004.8L1939.09 1004.79C1939.08 1004.76 1939.07 1004.74 1939.05 1004.72C1938.57 1003.89 1938.11 1003.05 1937.67 1002.21L1926.44 1014.67C1916.73 1025.41 1911.36 1039.37 1911.39 1053.79C1912.15 1054.64 1912.93 1055.46 1913.73 1056.28C1915.3 1057.92 1916.94 1059.5 1918.66 1061.05Z" fill="#F47A20"/>
<g style="mix-blend-mode:multiply" opacity="0.15">
<g style="mix-blend-mode:multiply" opacity="0.15">
<path d="M2025.84 1065.31C2026.62 1061.74 2027.06 1058.11 2027.16 1054.46C2008.81 1054.92 1990.74 1050.27 1974.94 1041.05C1959.14 1031.83 1946.24 1018.38 1937.66 1002.21C1937.66 1002.21 1950.24 1048.73 2025.84 1065.31Z" fill="#F47A20"/>
</g>
</g>
<g style="mix-blend-mode:multiply" opacity="0.15">
<g style="mix-blend-mode:multiply" opacity="0.15">
<path d="M2013.7 1090.12C2016.42 1086.85 2018.77 1083.3 2020.72 1079.53C2003.59 1086.2 1984.98 1088.01 1966.96 1084.75C1948.95 1081.49 1932.22 1073.28 1918.65 1061.05C1916.1 1058.75 1913.68 1056.33 1911.38 1053.79C1911.38 1053.79 1942.6 1102.9 2013.7 1090.12Z" fill="#F47A20"/>
</g>
</g>
<g style="mix-blend-mode:multiply" opacity="0.25">
<g style="mix-blend-mode:multiply" opacity="0.25">
<path d="M1923.51 1066.07C1924.48 1066.82 1925.49 1067.61 1926.55 1068.44C1927.61 1069.24 1928.67 1070.2 1929.89 1070.95C1931.1 1071.76 1932.35 1072.59 1933.63 1073.43C1934.89 1074.33 1936.31 1075.02 1937.71 1075.83C1939.12 1076.69 1940.59 1077.46 1942.09 1078.15C1943.62 1078.86 1945.15 1079.58 1946.73 1080.31C1948.34 1080.95 1949.98 1081.56 1951.65 1082.18C1953.29 1082.85 1955.02 1083.28 1956.73 1083.81L1959.31 1084.57C1960.18 1084.81 1961.06 1084.98 1961.94 1085.19C1963.69 1085.54 1965.44 1086.02 1967.22 1086.25C1968.99 1086.51 1970.76 1086.77 1972.52 1087.02C1975.96 1087.38 1979.42 1087.56 1982.89 1087.56C1986.13 1087.57 1989.37 1087.41 1992.59 1087.09C1994.13 1086.88 1995.62 1086.67 1997.06 1086.47C1997.77 1086.37 1998.48 1086.26 1999.17 1086.15C1999.85 1086.02 2000.53 1085.87 2001.18 1085.72C2002.5 1085.44 2003.75 1085.17 2004.95 1084.9C2006.15 1084.63 2007.25 1084.24 2008.3 1083.96C2010.39 1083.31 2012.21 1082.82 2013.68 1082.22C2016.41 1081.19 2018.03 1080.53 2018.23 1080.44C2018.2 1080.46 2018.17 1080.47 2018.14 1080.47C2001.28 1086.52 1983.13 1087.91 1965.61 1084.49C1948.1 1081.07 1931.87 1072.97 1918.65 1061.04C1916.93 1059.5 1915.29 1057.92 1913.72 1056.28C1913.97 1056.56 1915.11 1057.83 1916.96 1059.82C1917.52 1060.38 1918.03 1061.01 1918.77 1061.68C1919.45 1062.31 1920.19 1063 1920.99 1063.74C1921.79 1064.48 1922.62 1065.25 1923.51 1066.07Z" fill="#F47A20"/>
</g>
</g>
<g style="mix-blend-mode:multiply" opacity="0.25">
<g style="mix-blend-mode:multiply" opacity="0.25">
<path d="M2024.81 1054.49L2024.8 1054.5C2024.84 1054.51 2024.85 1054.5 2024.87 1054.5C2024.86 1054.48 2024.84 1054.49 2024.81 1054.49Z" fill="#F47A20"/>
</g>
</g>
<g style="mix-blend-mode:multiply" opacity="0.25">
<g style="mix-blend-mode:multiply" opacity="0.25">
<path d="M1939.09 1004.79C1939.1 1004.82 1939.12 1004.85 1939.13 1004.88L1939.14 1004.86C1939.13 1004.83 1939.11 1004.81 1939.1 1004.78C1939.08 1004.76 1939.07 1004.74 1939.05 1004.72C1939.06 1004.74 1939.07 1004.77 1939.09 1004.79Z" fill="#F47A20"/>
</g>
</g>
<g style="mix-blend-mode:multiply" opacity="0.25">
<g style="mix-blend-mode:multiply" opacity="0.25">
<path d="M1958.86 1031.07C1961.21 1033.22 1963.67 1035.23 1966.23 1037.1C1968.87 1039.04 1971.61 1040.84 1974.44 1042.5C1975.88 1043.33 1977.31 1044.14 1978.78 1044.86L1980.98 1045.96C1981.72 1046.29 1982.46 1046.63 1983.2 1046.96C1983.95 1047.29 1984.68 1047.63 1985.42 1047.95C1986.16 1048.24 1986.92 1048.53 1987.65 1048.81C1989.14 1049.4 1990.62 1049.89 1992.1 1050.37C1993.56 1050.88 1995.02 1051.29 1996.45 1051.67C1997.89 1052.06 1999.31 1052.39 2000.69 1052.68C2002.06 1053.01 2003.41 1053.27 2004.73 1053.47C2006.04 1053.69 2007.31 1053.9 2008.54 1054.03C2009.76 1054.17 2010.93 1054.33 2012.04 1054.41C2013.16 1054.48 2014.23 1054.54 2015.23 1054.59C2017.23 1054.68 2018.98 1054.66 2020.41 1054.69C2022.91 1054.61 2024.46 1054.51 2024.8 1054.49C2000.36 1054.57 1976.82 1045.57 1958.76 1029.23C1950.96 1022.21 1944.33 1013.99 1939.12 1004.87C1939.2 1005.05 1939.36 1005.35 1939.57 1005.78C1939.9 1006.46 1940.39 1007.47 1941.09 1008.71C1943.01 1012.17 1945.16 1015.5 1947.54 1018.66C1949.12 1020.79 1950.81 1022.84 1952.6 1024.79C1954.56 1027.01 1956.66 1029.1 1958.86 1031.07Z" fill="#F47A20"/>
</g>
</g>
<g style="mix-blend-mode:screen" opacity="0.4">
<g style="mix-blend-mode:screen" opacity="0.4">
<path d="M1918.65 1061.05C1931.88 1072.97 1948.11 1081.08 1965.62 1084.5C1983.14 1087.92 2001.29 1086.52 2018.15 1080.47C2017.74 1080.57 2016.09 1080.98 2013.51 1081.66C2012.03 1082.13 2010.16 1082.44 2008.06 1082.87C2005.95 1083.36 2003.53 1083.66 2000.93 1084.04C2000.26 1084.13 1999.59 1084.23 1998.92 1084.33C1998.23 1084.38 1997.54 1084.44 1996.83 1084.49C1995.41 1084.62 1993.95 1084.74 1992.44 1084.87C1989.42 1084.91 1986.25 1085.11 1982.96 1084.92C1979.67 1084.92 1976.31 1084.46 1972.88 1084.16C1971.18 1083.89 1969.47 1083.63 1967.75 1083.35C1966.03 1083.11 1964.34 1082.62 1962.63 1082.28C1961.78 1082.09 1960.91 1081.94 1960.08 1081.71L1957.57 1080.98C1955.9 1080.49 1954.21 1080.1 1952.61 1079.46C1951 1078.88 1949.4 1078.31 1947.8 1077.74C1946.26 1077.07 1944.72 1076.42 1943.22 1075.77C1941.69 1075.18 1940.3 1074.35 1938.88 1073.68C1937.47 1072.95 1936.05 1072.34 1934.79 1071.52C1932.2 1069.98 1929.7 1068.6 1927.58 1067.07C1926.49 1066.35 1925.44 1065.64 1924.44 1064.97C1923.47 1064.24 1922.56 1063.54 1921.71 1062.89C1920.85 1062.24 1920.05 1061.61 1919.31 1061.05C1918.6 1060.53 1917.96 1059.9 1917.37 1059.4C1915.32 1057.61 1914.01 1056.52 1913.73 1056.28C1915.3 1057.92 1916.94 1059.5 1918.65 1061.05Z" fill="#F47A20"/>
</g>
</g>
<g style="mix-blend-mode:screen" opacity="0.4">
<g style="mix-blend-mode:screen" opacity="0.4">
<path d="M1958.76 1029.24C1976.83 1045.57 2000.37 1054.57 2024.81 1054.49C2024.84 1054.5 2024.85 1054.49 2024.87 1054.49C2024.86 1054.48 2024.84 1054.48 2024.82 1054.48C2024.47 1054.45 2022.92 1054.3 2020.42 1054.12C2019.02 1053.94 2017.3 1053.79 2015.35 1053.49C2013.4 1053.18 2011.2 1052.83 2008.83 1052.34C2007.64 1052.13 2006.42 1051.84 2005.15 1051.53C2003.89 1051.22 2002.58 1050.92 2001.24 1050.53C1999.9 1050.17 1998.54 1049.79 1997.17 1049.32C1995.79 1048.85 1994.37 1048.44 1992.98 1047.89C1991.56 1047.38 1990.13 1046.86 1988.71 1046.23C1987.29 1045.65 1985.85 1045.02 1984.43 1044.35C1983.71 1044.02 1982.99 1043.68 1982.27 1043.35L1980.15 1042.25C1978.73 1041.53 1977.35 1040.73 1975.97 1039.92C1973.21 1038.34 1970.53 1036.61 1967.94 1034.76C1965.39 1032.92 1962.9 1031.05 1960.62 1029.09C1953.44 1023.02 1947.05 1016.07 1941.61 1008.4C1940.27 1006.53 1939.41 1005.28 1939.14 1004.87C1939.13 1004.84 1939.11 1004.82 1939.09 1004.79C1939.08 1004.76 1939.07 1004.74 1939.05 1004.72C1939.06 1004.75 1939.07 1004.77 1939.08 1004.8C1939.1 1004.82 1939.12 1004.85 1939.13 1004.88C1944.34 1013.99 1950.97 1022.22 1958.76 1029.24Z" fill="#F47A20"/>
</g>
</g>
<g style="mix-blend-mode:multiply" opacity="0.25">
<g style="mix-blend-mode:multiply" opacity="0.25">
<path d="M1930.37 1096.49C1941.74 1106.73 1956.74 1112 1972.07 1111.14C1987.41 1110.28 2001.83 1103.37 2012.15 1091.91C2012.15 1091.91 2011.78 1092.26 2011.07 1092.91C2010.37 1093.6 2009.28 1094.49 2007.92 1095.65C2006.52 1096.78 2004.79 1098.08 2002.74 1099.47C2000.42 1100.96 1998.01 1102.32 1995.54 1103.54C1992.61 1104.94 1989.57 1106.11 1986.46 1107.03C1983 1108.04 1979.47 1108.74 1975.89 1109.13C1972.08 1109.53 1968.24 1109.57 1964.43 1109.24C1960.5 1108.92 1956.62 1108.18 1952.85 1107.03C1949.07 1105.91 1945.42 1104.4 1941.96 1102.53C1938.61 1100.71 1935.44 1098.57 1932.5 1096.14C1929.74 1093.85 1927.19 1091.33 1924.88 1088.59C1922.81 1086.12 1920.94 1083.48 1919.29 1080.71C1917.9 1078.34 1916.66 1075.89 1915.58 1073.36C1914.64 1071.08 1913.91 1069.05 1913.39 1067.35C1912.88 1065.65 1912.51 1064.29 1912.3 1063.36C1912.14 1062.65 1912.04 1062.21 1911.98 1062.02C1913.89 1075.34 1920.39 1087.53 1930.37 1096.49Z" fill="#F47A20"/>
</g>
</g>
<circle r="57.6895" transform="matrix(0.669443 -0.742863 -0.742863 -0.669443 408.62 1378.63)" fill="#F47A20"/>
<path d="M448.217 1334.71C436.85 1324.47 421.848 1319.19 406.511 1320.05C391.173 1320.91 376.757 1327.83 366.432 1339.28C365.9 1339.87 365.389 1340.46 364.878 1341.07C362.163 1344.35 359.807 1347.9 357.853 1351.67C358.685 1351.35 359.506 1351.04 360.349 1350.75C360.359 1350.74 360.38 1350.74 360.411 1350.72L360.432 1350.72C361.316 1350.41 362.191 1350.11 363.066 1349.82C363.285 1349.76 363.493 1349.68 363.701 1349.61C364.535 1349.35 365.369 1349.09 366.215 1348.86C366.448 1348.78 366.685 1348.71 366.925 1348.66C367.561 1348.46 368.219 1348.29 368.867 1348.12C369.317 1348 369.787 1347.88 370.226 1347.77C370.895 1347.61 371.555 1347.45 372.225 1347.31C372.664 1347.2 373.083 1347.11 373.534 1347.04C374.099 1346.9 374.676 1346.79 375.253 1346.69C375.755 1346.57 376.259 1346.48 376.773 1346.4C377.476 1346.27 378.179 1346.15 378.905 1346.06C379.198 1346 379.503 1345.95 379.818 1345.91C380.585 1345.8 381.353 1345.7 382.132 1345.61C382.542 1345.56 382.952 1345.5 383.384 1345.47C383.836 1345.41 384.279 1345.37 384.732 1345.33C385.574 1345.24 386.428 1345.18 387.283 1345.12C387.387 1345.11 387.494 1345.1 387.599 1345.11C388.421 1345.04 389.256 1345 390.08 1344.98C390.638 1344.94 391.188 1344.93 391.728 1344.93C392.34 1344.89 392.943 1344.89 393.546 1344.89C393.895 1344.88 394.234 1344.88 394.562 1344.9C395.366 1344.89 396.171 1344.91 396.976 1344.93C397.389 1344.94 397.814 1344.96 398.228 1344.99C398.821 1345 399.404 1345.02 399.977 1345.07C400.539 1345.09 401.102 1345.13 401.655 1345.19C402.153 1345.21 402.653 1345.26 403.131 1345.31C403.769 1345.36 404.396 1345.42 405.024 1345.5C405.652 1345.58 406.301 1345.64 406.94 1345.73C407.233 1345.75 407.525 1345.79 407.813 1345.85C408.708 1345.97 409.603 1346.11 410.489 1346.26C411.597 1346.43 412.697 1346.63 413.788 1346.87C414.268 1346.96 414.739 1347.06 415.209 1347.16C419.041 1347.99 422.817 1349.06 426.515 1350.36C427.042 1350.53 427.559 1350.71 428.076 1350.92C428.646 1351.11 429.207 1351.33 429.768 1351.55C430.231 1351.73 430.706 1351.91 431.17 1352.11C431.688 1352.32 432.207 1352.54 432.714 1352.76C434.572 1353.54 436.401 1354.38 438.201 1355.3C438.656 1355.52 439.101 1355.74 439.546 1355.98C439.839 1356.13 440.11 1356.27 440.393 1356.42L441.762 1357.17C443.62 1358.2 445.44 1359.29 447.242 1360.45L448.454 1361.24C448.64 1361.37 448.815 1361.49 449.001 1361.61C449.482 1361.93 449.952 1362.25 450.413 1362.58C451.113 1363.07 451.814 1363.56 452.495 1364.08C452.681 1364.2 452.857 1364.34 453.032 1364.48C453.504 1364.82 453.977 1365.19 454.438 1365.54C454.899 1365.9 455.373 1366.29 455.836 1366.66C456.165 1366.92 456.485 1367.19 456.816 1367.47C457.873 1368.34 458.911 1369.23 459.929 1370.15C460.448 1370.62 460.957 1371.08 461.446 1371.56C461.711 1371.8 461.966 1372.03 462.221 1372.28C463.109 1373.14 463.976 1374 464.822 1374.88L464.855 1374.91C465.067 1375.12 465.278 1375.33 465.479 1375.55C466.047 1376.15 466.594 1376.74 467.152 1377.35C467.171 1377.36 467.187 1377.38 467.197 1377.41C467.194 1374.68 466.999 1371.96 466.616 1369.27L466.613 1369.2C466.612 1369.19 466.608 1369.18 466.601 1369.17C464.694 1355.86 458.191 1343.67 448.217 1334.71Z" fill="#F47A20"/>
<path d="M459.927 1370.15C446.703 1358.22 430.475 1350.12 412.96 1346.7C395.445 1343.28 377.295 1344.67 360.431 1350.72C360.401 1350.72 360.371 1350.73 360.347 1350.75L360.326 1350.75C359.494 1351.05 358.673 1351.36 357.852 1351.67C355.525 1356.17 353.804 1360.95 352.736 1365.89C351.959 1369.46 351.517 1373.09 351.416 1376.74C352.177 1376.72 352.928 1376.71 353.69 1376.71L353.711 1376.71C353.722 1376.72 353.743 1376.71 353.764 1376.71L353.774 1376.7C378.218 1376.63 401.75 1385.62 419.818 1401.96C427.614 1408.98 434.24 1417.2 439.452 1426.32L439.442 1426.33C439.464 1426.35 439.476 1426.38 439.498 1426.4L439.488 1426.41C439.5 1426.43 439.515 1426.45 439.533 1426.47C440.007 1427.3 440.471 1428.15 440.913 1428.99L452.145 1416.53C461.85 1405.79 467.219 1391.83 467.196 1377.41C466.435 1376.56 465.655 1375.74 464.854 1374.91C463.283 1373.27 461.641 1371.69 459.927 1370.15Z" fill="#F47A20"/>
<g style="mix-blend-mode:multiply" opacity="0.15">
<g style="mix-blend-mode:multiply" opacity="0.15">
<path d="M352.736 1365.89C351.959 1369.46 351.517 1373.09 351.416 1376.74C369.766 1376.28 387.843 1380.93 403.641 1390.15C419.439 1399.37 432.34 1412.82 440.913 1428.99C440.913 1428.99 428.342 1382.47 352.736 1365.89Z" fill="#F47A20"/>
</g>
</g>
<g style="mix-blend-mode:multiply" opacity="0.15">
<g style="mix-blend-mode:multiply" opacity="0.15">
<path d="M364.878 1341.07C362.162 1344.35 359.807 1347.9 357.853 1351.67C374.986 1345 393.595 1343.19 411.614 1346.45C429.633 1349.71 446.357 1357.92 459.929 1370.15C462.473 1372.44 464.899 1374.87 467.197 1377.41C467.197 1377.41 435.979 1328.29 364.878 1341.07Z" fill="#F47A20"/>
</g>
</g>
<g style="mix-blend-mode:multiply" opacity="0.25">
<g style="mix-blend-mode:multiply" opacity="0.25">
<path d="M455.069 1365.12C454.102 1364.37 453.091 1363.58 452.035 1362.75C450.97 1361.95 449.909 1361 448.687 1360.24C447.485 1359.44 446.228 1358.61 444.949 1357.76C443.69 1356.87 442.27 1356.17 440.877 1355.36C439.46 1354.51 437.995 1353.73 436.491 1353.05C434.965 1352.34 433.428 1351.62 431.847 1350.88C430.24 1350.24 428.603 1349.63 426.933 1349.02C425.292 1348.35 423.558 1347.91 421.85 1347.39L419.273 1346.62C418.405 1346.38 417.518 1346.21 416.641 1346C414.889 1345.66 413.141 1345.17 411.363 1344.95C409.594 1344.68 407.825 1344.42 406.067 1344.17C402.622 1343.81 399.159 1343.63 395.693 1343.63C392.454 1343.62 389.216 1343.78 385.991 1344.1C384.456 1344.31 382.964 1344.52 381.524 1344.72C380.809 1344.82 380.106 1344.94 379.412 1345.04C378.731 1345.17 378.051 1345.33 377.401 1345.47C376.082 1345.75 374.836 1346.03 373.632 1346.29C372.428 1346.56 371.336 1346.95 370.28 1347.23C368.195 1347.88 366.367 1348.37 364.904 1348.97C362.171 1350.01 360.552 1350.67 360.355 1350.75C360.379 1350.73 360.408 1350.73 360.438 1350.73C377.303 1344.67 395.453 1343.28 412.968 1346.7C430.483 1350.12 446.711 1358.22 459.935 1370.15C461.649 1371.7 463.291 1373.28 464.862 1374.92C464.615 1374.63 463.475 1373.36 461.623 1371.37C461.067 1370.81 460.55 1370.18 459.809 1369.51C459.133 1368.88 458.391 1368.2 457.594 1367.46C456.797 1366.72 455.962 1365.95 455.069 1365.12Z" fill="#F47A20"/>
</g>
</g>
<g style="mix-blend-mode:multiply" opacity="0.25">
<g style="mix-blend-mode:multiply" opacity="0.25">
<path d="M353.768 1376.71L353.779 1376.69C353.744 1376.68 353.733 1376.7 353.71 1376.7C353.722 1376.71 353.745 1376.71 353.768 1376.71Z" fill="#F47A20"/>
</g>
</g>
<g style="mix-blend-mode:multiply" opacity="0.25">
<g style="mix-blend-mode:multiply" opacity="0.25">
<path d="M439.495 1426.4C439.478 1426.38 439.462 1426.35 439.448 1426.32L439.438 1426.33C439.45 1426.36 439.473 1426.38 439.485 1426.41C439.497 1426.44 439.513 1426.46 439.531 1426.48C439.521 1426.45 439.509 1426.43 439.495 1426.4Z" fill="#F47A20"/>
</g>
</g>
<g style="mix-blend-mode:multiply" opacity="0.25">
<g style="mix-blend-mode:multiply" opacity="0.25">
<path d="M419.714 1400.12C417.371 1397.98 414.911 1395.96 412.345 1394.09C409.706 1392.15 406.967 1390.35 404.139 1388.69C402.703 1387.86 401.267 1387.06 399.794 1386.33L397.603 1385.23C396.857 1384.9 396.121 1384.56 395.375 1384.23C394.63 1383.9 393.894 1383.56 393.159 1383.24C392.415 1382.96 391.66 1382.66 390.927 1382.38C389.439 1381.79 387.955 1381.3 386.482 1380.82C385.019 1380.31 383.56 1379.91 382.124 1379.52C380.687 1379.14 379.264 1378.8 377.885 1378.51C376.515 1378.18 375.169 1377.92 373.847 1377.72C372.536 1377.51 371.266 1377.29 370.043 1377.16C368.82 1377.03 367.648 1376.86 366.533 1376.78C365.419 1376.71 364.347 1376.65 363.35 1376.6C361.346 1376.51 359.601 1376.54 358.171 1376.5C355.668 1376.59 354.117 1376.68 353.779 1376.7C378.223 1376.63 401.755 1385.63 419.823 1401.96C427.619 1408.98 434.246 1417.2 439.457 1426.32C439.374 1426.14 439.223 1425.85 439.011 1425.41C438.682 1424.73 438.189 1423.72 437.484 1422.48C435.567 1419.02 433.414 1415.69 431.039 1412.53C429.457 1410.4 427.77 1408.36 425.983 1406.4C424.016 1404.19 421.923 1402.09 419.714 1400.12Z" fill="#F47A20"/>
</g>
</g>
<g style="mix-blend-mode:screen" opacity="0.4">
<g style="mix-blend-mode:screen" opacity="0.4">
<path d="M459.927 1370.15C446.704 1358.22 430.475 1350.12 412.96 1346.7C395.446 1343.28 377.296 1344.67 360.431 1350.72C360.839 1350.62 362.491 1350.21 365.072 1349.53C366.552 1349.06 368.42 1348.75 370.527 1348.32C372.63 1347.84 375.049 1347.53 377.655 1347.15C378.317 1347.06 378.99 1346.96 379.662 1346.86C380.347 1346.81 381.043 1346.75 381.75 1346.7C383.172 1346.57 384.637 1346.45 386.144 1346.32C389.158 1346.29 392.332 1346.08 395.622 1346.27C398.913 1346.27 402.268 1346.73 405.7 1347.03C407.406 1347.3 409.112 1347.56 410.828 1347.84C412.554 1348.08 414.239 1348.57 415.948 1348.92C416.804 1349.1 417.668 1349.25 418.504 1349.48L421.015 1350.21C422.679 1350.7 424.37 1351.09 425.977 1351.73C427.581 1352.31 429.186 1352.89 430.779 1353.45C432.324 1354.12 433.858 1354.77 435.36 1355.42C436.891 1356.01 438.285 1356.84 439.704 1357.52C441.114 1358.24 442.529 1358.85 443.796 1359.67C446.378 1361.21 448.878 1362.59 451.004 1364.12C452.097 1364.85 453.147 1365.55 454.142 1366.22C455.108 1366.95 456.02 1367.65 456.876 1368.3C457.733 1368.96 458.535 1369.58 459.271 1370.14C459.984 1370.66 460.618 1371.29 461.213 1371.79C463.267 1373.58 464.568 1374.67 464.854 1374.91C463.284 1373.27 461.642 1371.69 459.927 1370.15Z" fill="#F47A20"/>
</g>
</g>
<g style="mix-blend-mode:screen" opacity="0.4">
<g style="mix-blend-mode:screen" opacity="0.4">
<path d="M419.821 1401.96C401.753 1385.62 378.221 1376.62 353.777 1376.7C353.745 1376.69 353.735 1376.7 353.714 1376.7C353.725 1376.71 353.746 1376.71 353.767 1376.71C354.118 1376.75 355.67 1376.89 358.166 1377.08C359.571 1377.26 361.281 1377.4 363.232 1377.71C365.183 1378.01 367.391 1378.36 369.753 1378.86C370.948 1379.06 372.168 1379.36 373.431 1379.67C374.695 1379.98 376.011 1380.27 377.342 1380.66C378.681 1381.02 380.043 1381.4 381.421 1381.88C382.798 1382.35 384.214 1382.76 385.605 1383.3C387.027 1383.82 388.459 1384.34 389.875 1384.97C391.3 1385.55 392.737 1386.18 394.156 1386.85C394.88 1387.18 395.595 1387.52 396.32 1387.85L398.436 1388.95C399.857 1389.66 401.239 1390.46 402.611 1391.28C405.376 1392.86 408.058 1394.58 410.647 1396.44C413.2 1398.27 415.682 1400.15 417.966 1402.1C425.145 1408.18 431.532 1415.13 436.979 1422.79C438.318 1424.67 439.172 1425.92 439.445 1426.33C439.457 1426.36 439.479 1426.38 439.491 1426.41C439.504 1426.43 439.519 1426.45 439.537 1426.47C439.527 1426.45 439.515 1426.42 439.501 1426.4C439.484 1426.37 439.468 1426.35 439.455 1426.32C434.244 1417.2 427.617 1408.98 419.821 1401.96Z" fill="#F47A20"/>
</g>
</g>
<g style="mix-blend-mode:multiply" opacity="0.25">
<g style="mix-blend-mode:multiply" opacity="0.25">
<path d="M448.213 1334.7C436.847 1324.46 421.845 1319.19 406.507 1320.05C391.17 1320.91 376.753 1327.82 366.429 1339.28C366.429 1339.28 366.804 1338.93 367.513 1338.28C368.21 1337.59 369.299 1336.69 370.662 1335.54C372.057 1334.41 373.793 1333.11 375.843 1331.72C378.163 1330.23 380.567 1328.87 383.043 1327.65C385.975 1326.25 389.012 1325.08 392.124 1324.15C395.581 1323.15 399.116 1322.45 402.689 1322.06C406.501 1321.66 410.34 1321.62 414.153 1321.95C418.084 1322.27 421.965 1323.01 425.73 1324.16C429.51 1325.28 433.161 1326.78 436.622 1328.66C439.974 1330.48 443.141 1332.62 446.082 1335.05C448.839 1337.33 451.389 1339.86 453.703 1342.6C455.775 1345.07 457.643 1347.71 459.287 1350.48C460.685 1352.85 461.927 1355.3 463.005 1357.83C463.94 1360.11 464.673 1362.14 465.188 1363.84C465.703 1365.53 466.076 1366.9 466.279 1367.83C466.44 1368.54 466.546 1368.98 466.597 1369.17C464.691 1355.85 458.187 1343.66 448.213 1334.7Z" fill="#F47A20"/>
</g>
</g>
<path d="M1656.02 2154.38C1757.59 2107.74 1732.63 1905.73 1702.61 1795.92L1739.45 1797.68C1833.92 2185.73 1702.85 2240.18 1625.51 2218.89C1287.54 2155.63 1012.67 1682.76 882.096 1361.43C852.518 1240.88 863.285 1245.69 872.366 1263.17L944.406 1419.74C1264.93 2126.6 1577.51 2190.42 1656.02 2154.38Z" fill="#7CC242"/>
<path d="M672.733 239.405C571.162 286.039 596.124 488.055 626.148 597.863L589.306 596.104C494.837 208.047 625.902 153.602 703.243 174.887C1041.21 238.148 1333.81 762.845 1464.38 1084.17C1493.96 1204.73 1483.19 1199.91 1474.11 1182.44L1402.07 1025.86C1092.11 276.362 751.242 203.359 672.733 239.405Z" fill="#7CC242"/>
<circle r="57.6895" transform="matrix(-0.983857 -0.178956 -0.178956 0.983857 1713.47 1775.28)" fill="#7CC242"/>
<path d="M1655.28 1764.68C1652.54 1779.74 1655.94 1795.27 1664.73 1807.87C1673.53 1820.46 1686.99 1829.09 1702.16 1831.85C1702.95 1831.99 1703.72 1832.12 1704.51 1832.23C1708.72 1832.82 1712.98 1832.96 1717.21 1832.64C1716.5 1832.1 1715.81 1831.56 1715.12 1831C1715.1 1831 1715.09 1830.98 1715.06 1830.96L1715.05 1830.94C1714.32 1830.35 1713.6 1829.77 1712.9 1829.17C1712.73 1829.02 1712.56 1828.88 1712.38 1828.75C1711.73 1828.17 1711.07 1827.6 1710.43 1827C1710.24 1826.84 1710.05 1826.68 1709.88 1826.5C1709.38 1826.07 1708.88 1825.6 1708.4 1825.13C1708.07 1824.81 1707.72 1824.48 1707.39 1824.16C1706.9 1823.68 1706.42 1823.2 1705.95 1822.7C1705.62 1822.39 1705.33 1822.08 1705.03 1821.73C1704.61 1821.32 1704.22 1820.89 1703.83 1820.45C1703.47 1820.09 1703.12 1819.71 1702.78 1819.31C1702.3 1818.79 1701.83 1818.25 1701.37 1817.68C1701.17 1817.46 1700.97 1817.23 1700.77 1816.98C1700.26 1816.39 1699.78 1815.78 1699.3 1815.17C1699.03 1814.85 1698.77 1814.53 1698.52 1814.18C1698.23 1813.82 1697.96 1813.47 1697.69 1813.1C1697.17 1812.43 1696.67 1811.74 1696.17 1811.04C1696.1 1810.96 1696.04 1810.88 1695.99 1810.78C1695.5 1810.12 1695.03 1809.43 1694.58 1808.74C1694.25 1808.29 1693.95 1807.82 1693.67 1807.36C1693.32 1806.86 1693 1806.35 1692.68 1805.84C1692.49 1805.55 1692.31 1805.26 1692.15 1804.97C1691.73 1804.29 1691.32 1803.59 1690.91 1802.9C1690.7 1802.54 1690.5 1802.17 1690.3 1801.8C1690 1801.29 1689.71 1800.79 1689.45 1800.27C1689.18 1799.78 1688.92 1799.28 1688.67 1798.78C1688.43 1798.35 1688.21 1797.9 1688 1797.46C1687.7 1796.9 1687.42 1796.33 1687.16 1795.75C1686.9 1795.18 1686.61 1794.59 1686.35 1794C1686.22 1793.74 1686.1 1793.47 1686 1793.2C1685.63 1792.37 1685.28 1791.54 1684.94 1790.7C1684.5 1789.67 1684.1 1788.63 1683.72 1787.58C1683.55 1787.12 1683.39 1786.67 1683.22 1786.22C1681.92 1782.52 1680.84 1778.74 1680 1774.92C1679.87 1774.38 1679.76 1773.84 1679.66 1773.29C1679.52 1772.71 1679.41 1772.12 1679.31 1771.52C1679.21 1771.03 1679.12 1770.53 1679.04 1770.04C1678.95 1769.49 1678.86 1768.93 1678.78 1768.38C1678.47 1766.39 1678.22 1764.39 1678.06 1762.38C1678.01 1761.87 1677.96 1761.38 1677.93 1760.88C1677.9 1760.55 1677.88 1760.25 1677.86 1759.92L1677.78 1758.37C1677.68 1756.24 1677.65 1754.12 1677.69 1751.98L1677.73 1750.53C1677.74 1750.31 1677.74 1750.1 1677.75 1749.87C1677.77 1749.3 1677.79 1748.73 1677.84 1748.16C1677.89 1747.31 1677.93 1746.45 1678.01 1745.61C1678.02 1745.38 1678.05 1745.16 1678.07 1744.94C1678.12 1744.35 1678.18 1743.76 1678.24 1743.18C1678.3 1742.6 1678.38 1742 1678.46 1741.4C1678.5 1740.99 1678.56 1740.58 1678.62 1740.15C1678.81 1738.79 1679.03 1737.44 1679.27 1736.09C1679.4 1735.4 1679.52 1734.73 1679.67 1734.06C1679.73 1733.71 1679.8 1733.37 1679.87 1733.02C1680.14 1731.81 1680.42 1730.62 1680.72 1729.44L1680.73 1729.39C1680.8 1729.1 1680.87 1728.81 1680.95 1728.53C1681.16 1727.73 1681.37 1726.95 1681.59 1726.16C1681.6 1726.14 1681.61 1726.11 1681.62 1726.09C1679.31 1727.53 1677.1 1729.12 1675 1730.86L1674.95 1730.9C1674.94 1730.91 1674.94 1730.92 1674.93 1730.93C1664.61 1739.55 1657.66 1751.49 1655.28 1764.68Z" fill="#7CC242"/>
<path d="M1679.27 1736.09C1676.08 1753.61 1677.72 1771.67 1684.01 1788.37C1690.31 1805.07 1701.04 1819.78 1715.05 1830.94C1715.07 1830.97 1715.09 1830.99 1715.12 1831L1715.13 1831.01C1715.82 1831.56 1716.52 1832.1 1717.21 1832.63C1722.26 1832.25 1727.23 1831.2 1732 1829.51C1735.44 1828.3 1738.77 1826.76 1741.92 1824.93C1741.5 1824.3 1741.1 1823.66 1740.7 1823.01L1740.69 1823C1740.69 1822.98 1740.68 1822.97 1740.66 1822.95L1740.65 1822.95C1727.73 1802.19 1723.02 1777.44 1727.42 1753.49C1729.29 1743.16 1732.8 1733.2 1737.82 1723.98L1737.83 1723.98C1737.84 1723.95 1737.86 1723.93 1737.86 1723.9L1737.88 1723.9C1737.89 1723.88 1737.9 1723.85 1737.9 1723.83C1738.36 1722.99 1738.84 1722.15 1739.32 1721.33L1722.81 1718.33C1708.58 1715.72 1693.88 1718.49 1681.62 1726.09C1681.3 1727.18 1681.01 1728.28 1680.73 1729.39C1680.17 1731.59 1679.68 1733.82 1679.27 1736.09Z" fill="#7CC242"/>
<g style="mix-blend-mode:multiply" opacity="0.15">
<g style="mix-blend-mode:multiply" opacity="0.15">
<path d="M1732 1829.51C1735.44 1828.3 1738.77 1826.76 1741.92 1824.93C1731.89 1809.56 1726.33 1791.74 1725.88 1773.46C1725.42 1755.17 1730.07 1737.13 1739.32 1721.33C1739.32 1721.33 1706.36 1756.48 1732 1829.51Z" fill="#7CC242"/>
</g>
</g>
<g style="mix-blend-mode:multiply" opacity="0.15">
<g style="mix-blend-mode:multiply" opacity="0.15">
<path d="M1704.5 1832.23C1708.71 1832.82 1712.97 1832.96 1717.21 1832.64C1702.52 1821.57 1691.2 1806.69 1684.51 1789.65C1677.81 1772.6 1675.99 1754.07 1679.27 1736.09C1679.88 1732.72 1680.67 1729.38 1681.62 1726.09C1681.62 1726.09 1656.25 1778.47 1704.5 1832.23Z" fill="#7CC242"/>
</g>
</g>
<g style="mix-blend-mode:multiply" opacity="0.25">
<g style="mix-blend-mode:multiply" opacity="0.25">
<path d="M1677.55 1742.87C1677.42 1744.08 1677.28 1745.36 1677.13 1746.69C1677.01 1748.02 1676.75 1749.43 1676.75 1750.86C1676.7 1752.31 1676.65 1753.81 1676.6 1755.35C1676.51 1756.89 1676.66 1758.46 1676.71 1760.07C1676.72 1761.72 1676.84 1763.38 1677.04 1765.02C1677.24 1766.69 1677.44 1768.37 1677.64 1770.11C1677.94 1771.81 1678.29 1773.52 1678.64 1775.27C1678.93 1777.01 1679.48 1778.72 1679.92 1780.45L1680.63 1783.04C1680.88 1783.91 1681.2 1784.75 1681.49 1785.61C1682.11 1787.28 1682.62 1789.02 1683.36 1790.65C1684.07 1792.29 1684.78 1793.94 1685.49 1795.56C1686.99 1798.68 1688.66 1801.73 1690.48 1804.67C1692.18 1807.43 1694.01 1810.1 1695.98 1812.68C1696.97 1813.87 1697.93 1815.03 1698.85 1816.15C1699.32 1816.71 1699.78 1817.25 1700.24 1817.78C1700.71 1818.29 1701.2 1818.79 1701.66 1819.27C1702.6 1820.24 1703.48 1821.16 1704.34 1822.04C1705.2 1822.92 1706.11 1823.65 1706.9 1824.4C1708.55 1825.83 1709.93 1827.13 1711.21 1828.06C1713.52 1829.84 1714.94 1830.87 1715.11 1830.99C1715.09 1830.98 1715.06 1830.96 1715.05 1830.93C1701.03 1819.77 1690.31 1805.06 1684.01 1788.36C1677.71 1771.67 1676.07 1753.6 1679.27 1736.08C1679.68 1733.81 1680.16 1731.58 1680.73 1729.39C1680.62 1729.75 1680.14 1731.38 1679.42 1734.01C1679.23 1734.77 1678.97 1735.54 1678.79 1736.53C1678.61 1737.43 1678.42 1738.42 1678.21 1739.49C1678 1740.56 1677.78 1741.67 1677.55 1742.87Z" fill="#7CC242"/>
</g>
</g>
<g style="mix-blend-mode:multiply" opacity="0.25">
<g style="mix-blend-mode:multiply" opacity="0.25">
<path d="M1740.66 1822.95L1740.64 1822.95C1740.65 1822.98 1740.67 1822.98 1740.68 1823C1740.69 1822.99 1740.67 1822.97 1740.66 1822.95Z" fill="#7CC242"/>
</g>
</g>
<g style="mix-blend-mode:multiply" opacity="0.25">
<g style="mix-blend-mode:multiply" opacity="0.25">
<path d="M1737.87 1723.9C1737.85 1723.93 1737.84 1723.96 1737.82 1723.98L1737.84 1723.99C1737.86 1723.96 1737.86 1723.93 1737.88 1723.9C1737.89 1723.88 1737.9 1723.86 1737.91 1723.83C1737.89 1723.85 1737.88 1723.88 1737.87 1723.9Z" fill="#7CC242"/>
</g>
</g>
<g style="mix-blend-mode:multiply" opacity="0.25">
<g style="mix-blend-mode:multiply" opacity="0.25">
<path d="M1725.91 1754.54C1725.32 1757.66 1724.9 1760.81 1724.65 1763.98C1724.39 1767.25 1724.3 1770.52 1724.38 1773.8C1724.43 1775.46 1724.49 1777.1 1724.65 1778.74L1724.86 1781.18C1724.98 1781.99 1725.07 1782.79 1725.19 1783.6C1725.3 1784.41 1725.4 1785.21 1725.51 1786.01C1725.66 1786.79 1725.8 1787.59 1725.95 1788.36C1726.23 1789.93 1726.6 1791.45 1726.96 1792.96C1727.3 1794.47 1727.72 1795.93 1728.15 1797.35C1728.57 1798.77 1729.04 1800.16 1729.51 1801.49C1729.96 1802.82 1730.44 1804.11 1730.96 1805.34C1731.47 1806.56 1731.96 1807.76 1732.49 1808.87C1733.02 1809.98 1733.49 1811.06 1734.01 1812.05C1734.54 1813.04 1735.05 1813.98 1735.53 1814.85C1736.51 1816.61 1737.45 1818.08 1738.17 1819.31C1739.56 1821.4 1740.46 1822.67 1740.65 1822.94C1727.74 1802.19 1723.02 1777.44 1727.42 1753.48C1729.29 1743.16 1732.8 1733.2 1737.82 1723.98C1737.71 1724.14 1737.54 1724.42 1737.28 1724.83C1736.87 1725.47 1736.27 1726.42 1735.59 1727.67C1733.65 1731.12 1731.96 1734.7 1730.51 1738.39C1729.53 1740.85 1728.68 1743.36 1727.96 1745.91C1727.11 1748.75 1726.43 1751.63 1725.91 1754.54Z" fill="#7CC242"/>
</g>
</g>
<g style="mix-blend-mode:screen" opacity="0.4">
<g style="mix-blend-mode:screen" opacity="0.4">
<path d="M1679.27 1736.09C1676.07 1753.61 1677.71 1771.67 1684.01 1788.37C1690.31 1805.07 1701.03 1819.78 1715.05 1830.94C1714.75 1830.64 1713.53 1829.45 1711.6 1827.62C1710.42 1826.6 1709.17 1825.18 1707.7 1823.61C1706.18 1822.08 1704.65 1820.18 1702.96 1818.16C1702.53 1817.65 1702.09 1817.13 1701.66 1816.61C1701.25 1816.05 1700.84 1815.49 1700.42 1814.92C1699.56 1813.78 1698.69 1812.59 1697.79 1811.38C1696.18 1808.83 1694.33 1806.24 1692.77 1803.34C1691.03 1800.54 1689.66 1797.45 1688.11 1794.37C1687.44 1792.78 1686.77 1791.19 1686.1 1789.58C1685.4 1787.99 1684.93 1786.3 1684.33 1784.66C1684.04 1783.84 1683.71 1783.02 1683.47 1782.19L1682.77 1779.67C1682.31 1778 1681.75 1776.35 1681.45 1774.65C1681.1 1772.98 1680.75 1771.31 1680.39 1769.66C1680.15 1768 1679.9 1766.35 1679.66 1764.73C1679.36 1763.12 1679.33 1761.49 1679.16 1759.93C1679.03 1758.35 1678.81 1756.83 1678.84 1755.32C1678.79 1752.31 1678.65 1749.46 1678.84 1746.84C1678.88 1745.54 1678.92 1744.27 1678.97 1743.07C1679.09 1741.87 1679.2 1740.72 1679.31 1739.65C1679.41 1738.58 1679.52 1737.57 1679.61 1736.65C1679.68 1735.77 1679.88 1734.9 1679.99 1734.13C1680.43 1731.44 1680.68 1729.76 1680.73 1729.39C1680.16 1731.59 1679.68 1733.82 1679.27 1736.09Z" fill="#7CC242"/>
</g>
</g>
<g style="mix-blend-mode:screen" opacity="0.4">
<g style="mix-blend-mode:screen" opacity="0.4">
<path d="M1727.41 1753.48C1723.02 1777.44 1727.73 1802.19 1740.65 1822.94C1740.66 1822.98 1740.67 1822.98 1740.68 1823C1740.69 1822.98 1740.67 1822.96 1740.66 1822.95C1740.51 1822.63 1739.81 1821.23 1738.66 1819.01C1738.07 1817.72 1737.3 1816.19 1736.53 1814.37C1735.77 1812.55 1734.9 1810.49 1734.08 1808.22C1733.63 1807.1 1733.24 1805.9 1732.84 1804.67C1732.44 1803.43 1732 1802.15 1731.63 1800.81C1731.23 1799.49 1730.84 1798.13 1730.52 1796.71C1730.2 1795.29 1729.8 1793.87 1729.53 1792.4C1729.22 1790.92 1728.91 1789.42 1728.71 1787.89C1728.45 1786.37 1728.23 1784.82 1728.05 1783.26C1727.95 1782.47 1727.87 1781.68 1727.77 1780.89L1727.59 1778.52C1727.45 1776.93 1727.4 1775.33 1727.37 1773.74C1727.27 1770.56 1727.32 1767.37 1727.54 1764.19C1727.76 1761.05 1728.05 1757.96 1728.51 1754.99C1729.9 1745.69 1732.46 1736.6 1736.12 1727.94C1737.01 1725.81 1737.62 1724.43 1737.83 1723.98C1737.85 1723.95 1737.85 1723.92 1737.87 1723.9C1737.89 1723.88 1737.9 1723.85 1737.9 1723.83C1737.89 1723.85 1737.87 1723.87 1737.86 1723.89C1737.85 1723.92 1737.83 1723.95 1737.81 1723.98C1732.8 1733.2 1729.29 1743.16 1727.41 1753.48Z" fill="#7CC242"/>
</g>
</g>
<g style="mix-blend-mode:multiply" opacity="0.25">
<g style="mix-blend-mode:multiply" opacity="0.25">
<path d="M1655.28 1764.69C1652.54 1779.74 1655.94 1795.27 1664.73 1807.87C1673.52 1820.46 1686.99 1829.09 1702.16 1831.85C1702.16 1831.85 1701.67 1831.72 1700.74 1831.46C1699.79 1831.22 1698.45 1830.77 1696.75 1830.22C1695.06 1829.62 1693.04 1828.83 1690.79 1827.81C1688.29 1826.63 1685.87 1825.3 1683.53 1823.83C1680.8 1822.07 1678.21 1820.11 1675.79 1817.94C1673.12 1815.53 1670.66 1812.89 1668.45 1810.06C1666.1 1807.03 1664.05 1803.78 1662.33 1800.36C1660.53 1796.85 1659.12 1793.16 1658.12 1789.35C1657.09 1785.55 1656.45 1781.65 1656.23 1777.72C1656.02 1773.91 1656.17 1770.1 1656.69 1766.32C1657.18 1762.77 1657.99 1759.27 1659.11 1755.86C1660.12 1752.8 1661.38 1749.83 1662.88 1746.97C1664.15 1744.54 1665.59 1742.19 1667.17 1739.94C1668.62 1737.95 1669.96 1736.26 1671.14 1734.93C1672.31 1733.6 1673.27 1732.56 1673.96 1731.9C1674.48 1731.39 1674.8 1731.07 1674.93 1730.93C1664.61 1739.55 1657.65 1751.49 1655.28 1764.69Z" fill="#7CC242"/>
</g>
</g>
<circle r="57.6895" transform="matrix(0.983857 0.178956 0.178956 -0.983857 615.289 618.499)" fill="#7CC242"/>
<path d="M673.476 629.09C676.213 614.036 672.812 598.503 664.019 585.907C655.226 573.31 641.763 564.684 626.59 561.923C625.807 561.781 625.037 561.656 624.249 561.543C620.039 560.952 615.778 560.816 611.541 561.138C612.252 561.676 612.947 562.211 613.638 562.776C613.653 562.778 613.665 562.796 613.691 562.816L613.704 562.833C614.436 563.42 615.153 564.004 615.853 564.601C616.024 564.753 616.197 564.89 616.37 565.028C617.028 565.602 617.687 566.175 618.325 566.776C618.518 566.93 618.702 567.094 618.876 567.269C619.375 567.708 619.87 568.176 620.349 568.642C620.688 568.961 621.039 569.297 621.362 569.613C621.854 570.096 622.331 570.576 622.806 571.071C623.129 571.387 623.424 571.698 623.727 572.041C624.141 572.449 624.535 572.884 624.929 573.319C625.289 573.687 625.631 574.067 625.971 574.462C626.455 574.988 626.922 575.527 627.383 576.095C627.587 576.314 627.788 576.547 627.987 576.795C628.49 577.386 628.975 577.989 629.458 578.606C629.72 578.926 629.982 579.247 630.239 579.596C630.525 579.951 630.796 580.303 631.065 580.669C631.584 581.339 632.083 582.035 632.582 582.731C632.651 582.811 632.712 582.898 632.763 582.991C633.252 583.655 633.722 584.345 634.176 585.033C634.505 585.487 634.803 585.949 635.085 586.409C635.436 586.912 635.755 587.424 636.073 587.936C636.264 588.228 636.44 588.517 636.602 588.804C637.027 589.486 637.434 590.181 637.842 590.875C638.052 591.231 638.259 591.602 638.451 591.97C638.755 592.479 639.044 592.986 639.301 593.501C639.578 593.991 639.838 594.492 640.083 594.99C640.324 595.428 640.547 595.877 640.758 596.309C641.051 596.877 641.33 597.442 641.591 598.019C641.852 598.596 642.143 599.178 642.401 599.77C642.535 600.032 642.654 600.301 642.758 600.577C643.126 601.4 643.478 602.236 643.814 603.069C644.252 604.102 644.657 605.144 645.03 606.196C645.207 606.651 645.368 607.104 645.53 607.558C646.835 611.256 647.911 615.03 648.752 618.857C648.883 619.396 648.999 619.931 649.098 620.479C649.235 621.064 649.341 621.658 649.446 622.252C649.541 622.738 649.633 623.239 649.71 623.738C649.808 624.285 649.89 624.845 649.974 625.39C650.282 627.383 650.529 629.38 650.697 631.393C650.742 631.9 650.789 632.393 650.819 632.898C650.852 633.222 650.873 633.528 650.89 633.849L650.973 635.408C651.075 637.53 651.101 639.653 651.062 641.794L651.028 643.241C651.017 643.466 651.009 643.676 650.999 643.902C650.986 644.474 650.959 645.044 650.917 645.612C650.868 646.465 650.82 647.319 650.742 648.167C650.731 648.393 650.706 648.615 650.681 648.837C650.636 649.419 650.574 650.013 650.514 650.593C650.455 651.172 650.375 651.778 650.298 652.369C650.253 652.785 650.193 653.198 650.13 653.625C649.944 654.983 649.729 656.336 649.484 657.684C649.358 658.372 649.236 659.046 649.084 659.715C649.02 660.066 648.958 660.403 648.88 660.752C648.614 661.96 648.337 663.15 648.03 664.335L648.022 664.379C647.954 664.669 647.886 664.959 647.803 665.247C647.597 666.042 647.38 666.819 647.159 667.612C647.155 667.637 647.146 667.661 647.131 667.682C649.447 666.247 651.659 664.652 653.75 662.909L653.802 662.873C653.811 662.866 653.818 662.857 653.822 662.846C664.146 654.225 671.098 642.284 673.476 629.09Z" fill="#7CC242"/>
<path d="M649.482 657.684C652.677 640.165 651.039 622.1 644.74 605.403C638.442 588.706 627.717 573.997 613.702 562.833C613.687 562.808 613.664 562.787 613.636 562.776L613.625 562.759C612.931 562.209 612.236 561.674 611.54 561.139C606.492 561.522 601.521 562.572 596.757 564.261C593.311 565.476 589.989 567.01 586.833 568.841C587.251 569.477 587.655 570.111 588.055 570.759L588.067 570.776C588.065 570.791 588.077 570.808 588.089 570.825L588.104 570.828C601.019 591.581 605.734 616.33 601.338 640.287C599.463 650.61 595.952 660.569 590.937 669.795L590.923 669.792C590.917 669.821 590.897 669.848 590.892 669.877L590.877 669.874C590.864 669.896 590.855 669.92 590.849 669.945C590.391 670.785 589.919 671.622 589.434 672.442L605.94 675.444C620.179 678.054 634.872 675.286 647.13 667.683C647.45 666.591 647.741 665.494 648.02 664.379C648.588 662.182 649.069 659.955 649.482 657.684Z" fill="#7CC242"/>
<g style="mix-blend-mode:multiply" opacity="0.15">
<g style="mix-blend-mode:multiply" opacity="0.15">
<path d="M596.757 564.261C593.311 565.477 589.989 567.01 586.833 568.841C596.866 584.212 602.42 602.03 602.879 620.318C603.338 638.605 598.684 656.647 589.434 672.442C589.434 672.442 622.397 637.292 596.757 564.261Z" fill="#7CC242"/>
</g>
</g>
<g style="mix-blend-mode:multiply" opacity="0.15">
<g style="mix-blend-mode:multiply" opacity="0.15">
<path d="M624.249 561.543C620.039 560.952 615.778 560.816 611.541 561.138C626.227 572.203 637.547 587.083 644.244 604.126C650.942 621.169 652.756 639.707 649.484 657.684C648.87 661.054 648.085 664.391 647.131 667.682C647.131 667.682 672.499 615.308 624.249 561.543Z" fill="#7CC242"/>
</g>
</g>
<g style="mix-blend-mode:multiply" opacity="0.25">
<g style="mix-blend-mode:multiply" opacity="0.25">
<path d="M651.203 650.913C651.333 649.696 651.474 648.42 651.625 647.085C651.744 645.76 652 644.354 652.002 642.917C652.051 641.473 652.096 639.968 652.146 638.434C652.243 636.893 652.087 635.321 652.045 633.709C652.026 632.055 651.914 630.403 651.709 628.76C651.51 627.09 651.313 625.404 651.11 623.673C650.809 621.969 650.465 620.257 650.111 618.513C649.819 616.765 649.275 615.061 648.827 613.331L648.124 610.736C647.869 609.873 647.55 609.028 647.263 608.174C646.637 606.501 646.13 604.76 645.39 603.127C644.682 601.485 643.974 599.843 643.264 598.215C641.761 595.094 640.094 592.053 638.271 589.105C636.574 586.347 634.738 583.675 632.772 581.099C631.784 579.905 630.82 578.746 629.896 577.625C629.432 577.071 628.966 576.533 628.514 575.997C628.042 575.487 627.553 574.989 627.091 574.512C626.154 573.54 625.269 572.622 624.408 571.739C623.546 570.856 622.641 570.131 621.847 569.382C620.201 567.947 618.82 566.652 617.54 565.723C615.226 563.94 613.811 562.911 613.635 562.788C613.663 562.8 613.686 562.82 613.701 562.846C627.716 574.01 638.44 588.719 644.739 605.416C651.038 622.113 652.676 640.177 649.481 657.697C649.068 659.967 648.587 662.195 648.02 664.392C648.13 664.034 648.611 662.396 649.332 659.773C649.518 659.005 649.78 658.235 649.958 657.254C650.138 656.349 650.334 655.355 650.544 654.289C650.753 653.222 650.971 652.106 651.203 650.913Z" fill="#7CC242"/>
</g>
</g>
<g style="mix-blend-mode:multiply" opacity="0.25">
<g style="mix-blend-mode:multiply" opacity="0.25">
<path d="M588.095 570.822L588.112 570.825C588.101 570.791 588.085 570.788 588.071 570.769C588.068 570.785 588.082 570.803 588.095 570.822Z" fill="#7CC242"/>
</g>
</g>
<g style="mix-blend-mode:multiply" opacity="0.25">
<g style="mix-blend-mode:multiply" opacity="0.25">
<path d="M590.891 669.876C590.905 669.847 590.92 669.819 590.938 669.792L590.923 669.789C590.902 669.817 590.897 669.846 590.876 669.873C590.863 669.896 590.854 669.92 590.848 669.945C590.864 669.923 590.878 669.9 590.891 669.876Z" fill="#7CC242"/>
</g>
</g>
<g style="mix-blend-mode:multiply" opacity="0.25">
<g style="mix-blend-mode:multiply" opacity="0.25">
<path d="M602.842 639.235C603.436 636.114 603.857 632.963 604.101 629.795C604.364 626.53 604.456 623.254 604.377 619.978C604.328 618.32 604.261 616.674 604.101 615.04L603.889 612.596C603.777 611.789 603.679 610.984 603.567 610.177C603.454 609.369 603.357 608.565 603.242 607.772C603.094 606.989 602.95 606.191 602.8 605.422C602.523 603.843 602.158 602.324 601.791 600.82C601.456 599.306 601.035 597.852 600.607 596.428C600.18 595.003 599.715 593.617 599.24 592.29C598.797 590.953 598.313 589.67 597.79 588.44C597.281 587.212 596.796 586.02 596.266 584.909C595.736 583.799 595.262 582.714 594.74 581.726C594.218 580.739 593.703 579.797 593.221 578.923C592.243 577.171 591.306 575.699 590.585 574.464C589.195 572.38 588.297 571.112 588.104 570.834C601.019 591.587 605.734 616.336 601.338 640.293C599.462 650.617 595.952 660.576 590.937 669.801C591.043 669.639 591.217 669.353 591.474 668.945C591.88 668.308 592.48 667.358 593.165 666.106C595.103 662.655 596.798 659.075 598.24 655.392C599.219 652.928 600.073 650.417 600.799 647.867C601.647 645.032 602.329 642.15 602.842 639.235Z" fill="#7CC242"/>
</g>
</g>
<g style="mix-blend-mode:screen" opacity="0.4">
<g style="mix-blend-mode:screen" opacity="0.4">
<path d="M649.485 657.683C652.68 640.164 651.042 622.099 644.743 605.402C638.445 588.705 627.721 573.996 613.706 562.832C614.003 563.128 615.22 564.318 617.159 566.154C618.331 567.169 619.583 568.592 621.051 570.161C622.572 571.693 624.103 573.591 625.795 575.609C626.22 576.125 626.659 576.644 627.099 577.162C627.501 577.72 627.918 578.28 628.332 578.855C629.192 579.995 630.059 581.181 630.968 582.391C632.578 584.938 634.426 587.529 635.987 590.431C637.721 593.228 639.095 596.323 640.639 599.403C641.311 600.993 641.983 602.583 642.652 604.188C643.353 605.784 643.824 607.473 644.426 609.111C644.718 609.936 645.042 610.752 645.287 611.583L645.989 614.101C646.447 615.774 647.002 617.418 647.302 619.122C647.655 620.79 648.007 622.459 648.362 624.112C648.609 625.776 648.858 627.425 649.097 629.043C649.399 630.656 649.424 632.28 649.598 633.84C649.722 635.421 649.948 636.945 649.918 638.453C649.966 641.458 650.102 644.313 649.917 646.927C649.877 648.236 649.83 649.499 649.78 650.7C649.667 651.905 649.551 653.049 649.447 654.12C649.344 655.191 649.237 656.2 649.145 657.122C649.077 658.002 648.873 658.873 648.764 659.64C648.32 662.329 648.075 664.009 648.024 664.378C648.591 662.181 649.072 659.954 649.485 657.683Z" fill="#7CC242"/>
</g>
</g>
<g style="mix-blend-mode:screen" opacity="0.4">
<g style="mix-blend-mode:screen" opacity="0.4">
<path d="M601.337 640.287C605.734 616.33 601.018 591.581 588.103 570.828C588.093 570.796 588.079 570.793 588.067 570.776C588.064 570.79 588.076 570.808 588.088 570.825C588.244 571.141 588.936 572.538 590.087 574.76C590.677 576.047 591.45 577.58 592.218 579.4C592.985 581.219 593.845 583.282 594.668 585.55C595.119 586.676 595.512 587.868 595.913 589.106C596.313 590.344 596.752 591.619 597.119 592.957C597.518 594.285 597.911 595.643 598.232 597.064C598.554 598.484 598.951 599.903 599.218 601.374C599.528 602.853 599.836 604.347 600.045 605.883C600.303 607.397 600.524 608.951 600.698 610.511C600.798 611.301 600.884 612.088 600.984 612.878L601.162 615.256C601.301 616.84 601.346 618.437 601.376 620.031C601.484 623.215 601.428 626.402 601.21 629.58C600.99 632.718 600.702 635.813 600.237 638.785C598.846 648.084 596.291 657.171 592.633 665.836C591.743 667.959 591.125 669.345 590.922 669.792C590.902 669.818 590.896 669.848 590.876 669.874C590.863 669.896 590.854 669.92 590.848 669.945C590.864 669.923 590.878 669.901 590.891 669.877C590.904 669.848 590.919 669.821 590.936 669.795C595.952 660.569 599.462 650.61 601.337 640.287Z" fill="#7CC242"/>
</g>
</g>
<g style="mix-blend-mode:multiply" opacity="0.25">
<g style="mix-blend-mode:multiply" opacity="0.25">
<path d="M673.478 629.09C676.216 614.037 672.815 598.503 664.022 585.907C655.229 573.311 641.765 564.684 626.592 561.924C626.592 561.924 627.086 562.059 628.015 562.319C628.964 562.552 630.3 563.007 632 563.558C633.691 564.154 635.713 564.945 637.969 565.961C640.462 567.147 642.883 568.477 645.221 569.943C647.954 571.701 650.544 573.669 652.966 575.831C655.635 578.246 658.089 580.885 660.302 583.718C662.65 586.748 664.7 589.994 666.424 593.411C668.22 596.922 669.63 600.613 670.629 604.421C671.666 608.224 672.302 612.123 672.525 616.054C672.739 619.862 672.585 623.68 672.067 627.457C671.57 631.006 670.76 634.504 669.647 637.912C668.635 640.973 667.375 643.947 665.879 646.805C664.601 649.237 663.165 651.585 661.581 653.832C660.136 655.823 658.791 657.516 657.618 658.846C656.446 660.176 655.48 661.211 654.795 661.874C654.275 662.384 653.957 662.705 653.825 662.847C664.149 654.226 671.101 642.285 673.478 629.09Z" fill="#7CC242"/>
</g>
</g>
<path d="M2262.25 1300.72C2275.98 1189.8 2091.01 1104.84 1981.81 1072.65L2002.68 1042.23C2382.45 1165.87 2359.86 1305.99 2301.1 1360.59C2069.61 1614.84 1465.44 1575.4 1123.46 1517.56C1005.35 1479.34 1015.11 1472.71 1034.75 1474.18L1205.81 1495.21C2018.65 1607.68 2251.64 1386.45 2262.25 1300.72Z" fill="#F47A20"/>
<path d="M116.327 1130.48C102.602 1241.4 287.573 1326.36 396.767 1358.54L375.903 1388.96C-3.86776 1265.32 18.7176 1125.21 77.4817 1070.61C308.967 816.359 913.385 856.105 1255.37 913.947C1373.47 952.162 1363.72 958.791 1344.08 957.328L1173.01 936.3C372.491 805.963 126.935 1044.74 116.327 1130.48Z" fill="#F47A20"/>
<path d="M663.787 2196.36C760.439 2252.49 911.137 2115.65 983.567 2027.83L1003.36 2058.95C740.695 2359.81 620.662 2284.09 593.479 2208.62C450.382 1895.97 719.577 1336.39 906.904 1044.48C988.375 950.828 990.647 962.402 981.599 979.895L895.168 1129.01C461.327 1814.29 589.082 2152.98 663.787 2196.36Z" fill="#2B2875"/>
<path d="M1661.96 289.105C1565.31 232.98 1414.61 369.813 1342.18 457.637L1322.38 426.516C1585.05 125.656 1705.09 201.382 1732.27 276.852C1875.37 589.502 1644.91 1103.73 1457.59 1395.63C1376.12 1489.29 1373.84 1477.71 1382.89 1460.22L1469.32 1311.11C1860.58 618.938 1736.67 332.487 1661.96 289.105Z" fill="#2B2875"/>
<circle r="57.6895" transform="matrix(-0.420815 -0.907147 -0.907147 0.420815 1006.69 2024.81)" fill="#2B2875"/>
<path d="M981.809 1971.15C967.929 1977.59 957.196 1989.32 951.97 2003.77C946.745 2018.21 947.455 2034.19 953.944 2048.18C954.279 2048.9 954.621 2049.6 954.982 2050.31C956.926 2054.09 959.271 2057.65 961.976 2060.93C962.006 2060.04 962.042 2059.16 962.105 2058.27C962.099 2058.26 962.106 2058.24 962.107 2058.2L962.114 2058.18C962.172 2057.25 962.236 2056.32 962.32 2055.41C962.346 2055.18 962.359 2054.96 962.371 2054.74C962.461 2053.87 962.55 2053 962.673 2052.13C962.687 2051.89 962.716 2051.64 962.759 2051.4C962.829 2050.74 962.927 2050.06 963.031 2049.4C963.097 2048.94 963.169 2048.46 963.241 2048.02C963.352 2047.34 963.47 2046.67 963.601 2046C963.672 2045.55 963.757 2045.13 963.862 2044.68C963.957 2044.11 964.085 2043.54 964.213 2042.97C964.307 2042.46 964.42 2041.96 964.547 2041.46C964.698 2040.76 964.87 2040.07 965.068 2039.36C965.129 2039.07 965.204 2038.77 965.292 2038.46C965.485 2037.71 965.698 2036.97 965.924 2036.22C966.035 2035.82 966.145 2035.42 966.283 2035.01C966.408 2034.57 966.539 2034.15 966.684 2033.72C966.932 2032.91 967.213 2032.1 967.494 2031.29C967.52 2031.19 967.556 2031.09 967.602 2030.99C967.863 2030.21 968.157 2029.43 968.457 2028.66C968.638 2028.13 968.844 2027.62 969.057 2027.12C969.266 2026.55 969.501 2025.99 969.735 2025.43C969.864 2025.11 969.999 2024.8 970.14 2024.5C970.453 2023.76 970.786 2023.03 971.118 2022.3C971.288 2021.92 971.472 2021.54 971.661 2021.17C971.902 2020.62 972.15 2020.1 972.423 2019.59C972.663 2019.08 972.923 2018.58 973.189 2018.09C973.408 2017.64 973.646 2017.2 973.878 2016.78C974.173 2016.21 974.474 2015.66 974.795 2015.11C975.116 2014.57 975.425 2013.99 975.759 2013.44C975.896 2013.18 976.047 2012.93 976.213 2012.69C976.673 2011.91 977.154 2011.14 977.64 2010.39C978.232 2009.43 978.85 2008.5 979.495 2007.59C979.765 2007.18 980.043 2006.79 980.32 2006.4C982.59 2003.2 985.053 2000.14 987.697 1997.25C988.061 1996.83 988.432 1996.43 988.823 1996.03C989.221 1995.59 989.646 1995.16 990.071 1994.73C990.414 1994.37 990.77 1994.01 991.133 1993.66C991.524 1993.26 991.934 1992.87 992.331 1992.49C993.782 1991.09 995.271 1989.73 996.82 1988.44C997.209 1988.11 997.584 1987.79 997.979 1987.47C998.225 1987.26 998.463 1987.06 998.715 1986.86L999.941 1985.9C1001.62 1984.59 1003.34 1983.35 1005.11 1982.14L1006.31 1981.34C1006.5 1981.22 1006.68 1981.1 1006.87 1980.98C1007.34 1980.66 1007.82 1980.35 1008.31 1980.06C1009.04 1979.61 1009.76 1979.16 1010.5 1978.73C1010.69 1978.61 1010.89 1978.5 1011.08 1978.4C1011.59 1978.1 1012.11 1977.81 1012.62 1977.52C1013.12 1977.24 1013.66 1976.95 1014.19 1976.67C1014.56 1976.47 1014.93 1976.28 1015.31 1976.09C1016.53 1975.46 1017.76 1974.85 1019 1974.28C1019.64 1973.98 1020.26 1973.69 1020.89 1973.43C1021.22 1973.28 1021.53 1973.14 1021.86 1973C1023 1972.52 1024.13 1972.06 1025.28 1971.63L1025.32 1971.61C1025.59 1971.5 1025.87 1971.39 1026.15 1971.29C1026.92 1971 1027.68 1970.73 1028.46 1970.45C1028.48 1970.44 1028.5 1970.44 1028.53 1970.44C1026.02 1969.37 1023.44 1968.48 1020.82 1967.78L1020.76 1967.76C1020.74 1967.75 1020.73 1967.75 1020.72 1967.76C1007.73 1964.29 993.961 1965.49 981.809 1971.15Z" fill="#2B2875"/>
<path d="M1019 1974.28C1002.84 1981.77 989.027 1993.52 979.012 2008.29C968.998 2023.06 963.159 2040.3 962.113 2058.19C962.101 2058.22 962.098 2058.25 962.104 2058.28L962.097 2058.3C962.047 2059.18 962.011 2060.06 961.975 2060.93C965.197 2064.84 968.921 2068.3 973.046 2071.22C976.026 2073.33 979.194 2075.16 982.509 2076.69C982.788 2075.98 983.073 2075.28 983.372 2074.58L983.379 2074.56C983.392 2074.56 983.4 2074.54 983.407 2074.52L983.4 2074.5C992.916 2051.99 1010.42 2033.87 1032.53 2023.65C1042.05 2019.24 1052.21 2016.36 1062.64 2015.15L1062.65 2015.16C1062.68 2015.15 1062.71 2015.15 1062.74 2015.14L1062.74 2015.15C1062.77 2015.15 1062.79 2015.14 1062.82 2015.13C1063.77 2015.02 1064.72 2014.93 1065.67 2014.85L1058.61 1999.63C1052.54 1986.49 1041.81 1976.08 1028.53 1970.44C1027.45 1970.81 1026.39 1971.2 1025.32 1971.62C1023.19 1972.42 1021.1 1973.31 1019 1974.28Z" fill="#2B2875"/>
<g style="mix-blend-mode:multiply" opacity="0.15">
<g style="mix-blend-mode:multiply" opacity="0.15">
<path d="M973.046 2071.22C976.026 2073.33 979.194 2075.16 982.509 2076.69C989.288 2059.63 1000.65 2044.82 1015.33 2033.9C1030.01 2022.99 1047.43 2016.39 1065.67 2014.85C1065.67 2014.85 1017.95 2008.17 973.046 2071.22Z" fill="#2B2875"/>
</g>
</g>
<g style="mix-blend-mode:multiply" opacity="0.15">
<g style="mix-blend-mode:multiply" opacity="0.15">
<path d="M954.978 2050.32C956.922 2054.1 959.267 2057.66 961.972 2060.93C962.55 2042.55 968.185 2024.73 978.252 2009.43C988.319 1994.14 1002.42 1981.97 1019 1974.28C1022.11 1972.84 1025.29 1971.56 1028.53 1970.44C1028.53 1970.44 971.105 1979.9 954.978 2050.32Z" fill="#2B2875"/>
</g>
</g>
<g style="mix-blend-mode:multiply" opacity="0.25">
<g style="mix-blend-mode:multiply" opacity="0.25">
<path d="M1012.47 1976.78C1011.4 1977.37 1010.28 1977.99 1009.1 1978.64C1007.95 1979.3 1006.65 1979.91 1005.48 1980.73C1004.27 1981.52 1003.01 1982.35 1001.73 1983.2C1000.41 1984.01 999.219 1985.04 997.926 1986C996.585 1986.97 995.3 1988.02 994.075 1989.13C992.825 1990.26 991.561 1991.39 990.263 1992.55C989.044 1993.78 987.843 1995.05 986.622 1996.34C985.362 1997.59 984.284 1999.02 983.128 2000.38L981.412 2002.45C980.854 2003.15 980.347 2003.9 979.814 2004.63C978.809 2006.1 977.678 2007.52 976.77 2009.07C975.836 2010.59 974.902 2012.12 973.982 2013.64C972.297 2016.66 970.773 2019.78 969.415 2022.97C968.139 2025.94 967.013 2028.98 966.041 2032.08C965.635 2033.57 965.244 2035.03 964.86 2036.43C964.675 2037.13 964.504 2037.82 964.326 2038.5C964.181 2039.18 964.057 2039.86 963.933 2040.51C963.678 2041.84 963.438 2043.09 963.213 2044.31C962.988 2045.52 962.918 2046.68 962.763 2047.76C962.539 2049.93 962.277 2051.8 962.255 2053.39C962.132 2056.3 962.107 2058.05 962.108 2058.27C962.101 2058.24 962.104 2058.21 962.117 2058.18C963.162 2040.29 969.001 2023.05 979.016 2008.28C989.03 1993.51 1002.85 1981.76 1019.01 1974.27C1021.1 1973.3 1023.2 1972.41 1025.32 1971.61C1024.96 1971.72 1023.35 1972.28 1020.79 1973.2C1020.05 1973.49 1019.27 1973.72 1018.37 1974.14C1017.53 1974.51 1016.6 1974.93 1015.61 1975.37C1014.62 1975.81 1013.58 1976.28 1012.47 1976.78Z" fill="#2B2875"/>
</g>
</g>
<g style="mix-blend-mode:multiply" opacity="0.25">
<g style="mix-blend-mode:multiply" opacity="0.25">
<path d="M983.404 2074.51L983.397 2074.49C983.375 2074.52 983.382 2074.54 983.374 2074.56C983.389 2074.55 983.396 2074.53 983.404 2074.51Z" fill="#2B2875"/>
</g>
</g>
<g style="mix-blend-mode:multiply" opacity="0.25">
<g style="mix-blend-mode:multiply" opacity="0.25">
<path d="M1062.74 2015.14C1062.71 2015.15 1062.68 2015.15 1062.64 2015.15L1062.65 2015.17C1062.68 2015.17 1062.71 2015.15 1062.75 2015.15C1062.77 2015.15 1062.8 2015.15 1062.82 2015.14C1062.79 2015.14 1062.77 2015.14 1062.74 2015.14Z" fill="#2B2875"/>
</g>
</g>
<g style="mix-blend-mode:multiply" opacity="0.25">
<g style="mix-blend-mode:multiply" opacity="0.25">
<path d="M1030.81 2023.03C1027.91 2024.34 1025.1 2025.81 1022.37 2027.44C1019.55 2029.11 1016.82 2030.92 1014.19 2032.87C1012.86 2033.87 1011.55 2034.87 1010.31 2035.94L1008.43 2037.53C1007.84 2038.08 1007.24 2038.63 1006.64 2039.18C1006.05 2039.74 1005.45 2040.28 1004.87 2040.84C1004.31 2041.41 1003.74 2041.99 1003.2 2042.55C1002.07 2043.69 1001.04 2044.86 1000.02 2046.03C998.976 2047.17 998.031 2048.36 997.113 2049.53C996.196 2050.7 995.331 2051.88 994.52 2053.03C993.683 2054.16 992.913 2055.3 992.21 2056.43C991.5 2057.56 990.805 2058.64 990.203 2059.71C989.601 2060.79 988.988 2061.8 988.481 2062.79C987.975 2063.79 987.503 2064.75 987.066 2065.65C986.198 2067.46 985.535 2069.07 984.941 2070.38C984.039 2072.71 983.52 2074.18 983.405 2074.5C992.921 2051.98 1010.43 2033.86 1032.54 2023.65C1042.06 2019.23 1052.22 2016.36 1062.65 2015.14C1062.45 2015.15 1062.12 2015.17 1061.64 2015.19C1060.88 2015.23 1059.76 2015.29 1058.34 2015.45C1054.41 2015.85 1050.5 2016.53 1046.66 2017.48C1044.09 2018.1 1041.54 2018.85 1039.04 2019.72C1036.23 2020.66 1033.48 2021.77 1030.81 2023.03Z" fill="#2B2875"/>
</g>
</g>
<g style="mix-blend-mode:screen" opacity="0.4">
<g style="mix-blend-mode:screen" opacity="0.4">
<path d="M1019 1974.27C1002.84 1981.76 989.023 1993.51 979.008 2008.28C968.993 2023.05 963.155 2040.3 962.109 2058.18C962.18 2057.77 962.451 2056.09 962.833 2053.45C962.987 2051.9 963.429 2050.06 963.864 2047.96C964.24 2045.83 964.908 2043.48 965.582 2040.94C965.759 2040.29 965.93 2039.64 966.1 2038.98C966.324 2038.33 966.542 2037.67 966.773 2037C967.208 2035.64 967.678 2034.24 968.143 2032.8C969.297 2030.02 970.349 2027.02 971.82 2024.07C973.107 2021.04 974.844 2018.13 976.471 2015.09C977.384 2013.63 978.296 2012.16 979.221 2010.69C980.121 2009.2 981.231 2007.84 982.222 2006.4C982.728 2005.69 983.207 2004.96 983.745 2004.28L985.399 2002.25C986.502 2000.91 987.526 1999.51 988.745 1998.28C989.905 1997.03 991.065 1995.79 992.212 1994.54C993.43 1993.38 994.634 1992.23 995.817 1991.1C996.962 1989.92 998.275 1988.97 999.449 1987.93C1000.67 1986.91 1001.79 1985.85 1003.03 1985.01C1005.46 1983.23 1007.72 1981.48 1009.96 1980.12C1011.05 1979.4 1012.11 1978.71 1013.12 1978.06C1014.17 1977.46 1015.17 1976.89 1016.11 1976.36C1017.04 1975.83 1017.93 1975.33 1018.74 1974.88C1019.5 1974.43 1020.32 1974.09 1021.01 1973.74C1023.47 1972.55 1024.98 1971.78 1025.31 1971.61C1023.19 1972.41 1021.09 1973.3 1019 1974.27Z" fill="#2B2875"/>
</g>
</g>
<g style="mix-blend-mode:screen" opacity="0.4">
<g style="mix-blend-mode:screen" opacity="0.4">
<path d="M1032.53 2023.65C1010.42 2033.86 992.913 2051.98 983.398 2074.5C983.377 2074.52 983.384 2074.54 983.376 2074.56C983.39 2074.55 983.397 2074.53 983.404 2074.51C983.572 2074.2 984.315 2072.83 985.468 2070.61C986.18 2069.39 986.987 2067.87 988.031 2066.2C989.076 2064.52 990.266 2062.63 991.645 2060.65C992.306 2059.63 993.052 2058.62 993.833 2057.58C994.614 2056.54 995.404 2055.45 996.285 2054.38C997.141 2053.28 998.024 2052.18 999 2051.1C999.975 2050.02 1000.91 2048.87 1001.95 2047.81C1002.98 2046.7 1004.03 2045.59 1005.16 2044.53C1006.25 2043.45 1007.39 2042.38 1008.57 2041.33C1009.16 2040.8 1009.75 2040.27 1010.34 2039.74L1012.18 2038.22C1013.39 2037.19 1014.67 2036.24 1015.96 2035.29C1018.5 2033.37 1021.13 2031.58 1023.86 2029.92C1026.55 2028.3 1029.24 2026.75 1031.94 2025.41C1040.34 2021.19 1049.24 2018.04 1058.43 2016.04C1060.68 2015.54 1062.16 2015.25 1062.65 2015.16C1062.68 2015.16 1062.71 2015.14 1062.74 2015.15C1062.77 2015.14 1062.79 2015.14 1062.81 2015.13C1062.79 2015.13 1062.76 2015.13 1062.73 2015.13C1062.7 2015.14 1062.67 2015.14 1062.64 2015.14C1052.21 2016.36 1042.05 2019.23 1032.53 2023.65Z" fill="#2B2875"/>
</g>
</g>
<g style="mix-blend-mode:multiply" opacity="0.25">
<g style="mix-blend-mode:multiply" opacity="0.25">
<path d="M981.805 1971.15C967.926 1977.59 957.192 1989.32 951.967 2003.77C946.741 2018.21 947.451 2034.19 953.941 2048.18C953.941 2048.18 953.766 2047.7 953.443 2046.79C953.087 2045.88 952.689 2044.52 952.16 2042.82C951.671 2041.09 951.153 2038.98 950.682 2036.55C950.215 2033.83 949.906 2031.09 949.757 2028.33C949.618 2025.09 949.734 2021.83 950.104 2018.61C950.54 2015.04 951.282 2011.51 952.321 2008.07C953.444 2004.4 954.915 2000.86 956.714 1997.48C958.548 1993.99 960.752 1990.71 963.288 1987.7C965.798 1984.66 968.618 1981.89 971.702 1979.44C974.69 1977.07 977.899 1975 981.283 1973.24C984.471 1971.61 987.796 1970.25 991.222 1969.2C994.307 1968.26 997.464 1967.57 1000.66 1967.15C1003.39 1966.79 1006.13 1966.61 1008.88 1966.61C1011.34 1966.65 1013.5 1966.77 1015.26 1966.96C1017.03 1967.15 1018.43 1967.35 1019.36 1967.52C1020.08 1967.65 1020.53 1967.73 1020.72 1967.75C1007.72 1964.29 993.958 1965.49 981.805 1971.15Z" fill="#2B2875"/>
</g>
</g>
<circle r="57.6895" transform="matrix(0.420815 0.907147 0.907147 -0.420815 1319.05 460.658)" fill="#2B2875"/>
<path d="M1343.93 514.315C1357.81 507.876 1368.55 496.143 1373.77 481.698C1379 467.252 1378.29 451.278 1371.8 437.288C1371.46 436.566 1371.12 435.864 1370.76 435.156C1368.82 431.375 1366.47 427.814 1363.77 424.537C1363.74 425.428 1363.7 426.305 1363.64 427.195C1363.64 427.208 1363.64 427.228 1363.64 427.262L1363.63 427.281C1363.57 428.218 1363.51 429.141 1363.42 430.057C1363.4 430.284 1363.38 430.505 1363.37 430.726C1363.28 431.594 1363.19 432.463 1363.07 433.33C1363.05 433.577 1363.03 433.822 1362.98 434.065C1362.91 434.726 1362.82 435.4 1362.71 436.061C1362.65 436.521 1362.57 437.001 1362.5 437.448C1362.39 438.128 1362.27 438.795 1362.14 439.468C1362.07 439.915 1361.99 440.334 1361.88 440.78C1361.79 441.353 1361.66 441.926 1361.53 442.498C1361.44 443.005 1361.32 443.504 1361.2 444.009C1361.04 444.708 1360.87 445.4 1360.67 446.104C1360.61 446.397 1360.54 446.696 1360.45 447.002C1360.26 447.753 1360.04 448.497 1359.82 449.247C1359.71 449.646 1359.6 450.044 1359.46 450.455C1359.33 450.894 1359.2 451.319 1359.06 451.75C1358.81 452.559 1358.53 453.368 1358.25 454.177C1358.22 454.28 1358.19 454.38 1358.14 454.475C1357.88 455.258 1357.59 456.039 1357.29 456.807C1357.1 457.337 1356.9 457.847 1356.68 458.343C1356.48 458.919 1356.24 459.475 1356.01 460.03C1355.88 460.355 1355.74 460.665 1355.6 460.962C1355.29 461.703 1354.96 462.436 1354.62 463.17C1354.45 463.546 1354.27 463.929 1354.08 464.298C1353.84 464.84 1353.59 465.369 1353.32 465.876C1353.08 466.384 1352.82 466.885 1352.55 467.373C1352.33 467.821 1352.1 468.263 1351.86 468.684C1351.57 469.251 1351.27 469.805 1350.95 470.351C1350.63 470.897 1350.32 471.47 1349.98 472.022C1349.85 472.283 1349.69 472.535 1349.53 472.778C1349.07 473.554 1348.59 474.323 1348.1 475.078C1347.51 476.031 1346.89 476.963 1346.25 477.874C1345.98 478.281 1345.7 478.674 1345.42 479.067C1343.15 482.265 1340.69 485.32 1338.05 488.213C1337.68 488.63 1337.31 489.034 1336.92 489.43C1336.52 489.88 1336.1 490.308 1335.67 490.737C1335.33 491.095 1334.97 491.458 1334.61 491.809C1334.22 492.205 1333.81 492.594 1333.41 492.976C1331.96 494.377 1330.47 495.73 1328.92 497.027C1328.53 497.356 1328.16 497.679 1327.76 497.995C1327.52 498.208 1327.28 498.402 1327.03 498.601L1325.8 499.567C1324.13 500.874 1322.41 502.118 1320.63 503.321L1319.43 504.127C1319.24 504.248 1319.06 504.363 1318.87 504.484C1318.4 504.804 1317.92 505.11 1317.43 505.402C1316.7 505.855 1315.98 506.307 1315.24 506.732C1315.05 506.854 1314.85 506.961 1314.66 507.069C1314.16 507.368 1313.63 507.659 1313.13 507.944C1312.62 508.229 1312.08 508.513 1311.55 508.791C1311.19 508.994 1310.81 509.183 1310.43 509.378C1309.21 510.009 1307.98 510.613 1306.74 511.189C1306.1 511.484 1305.48 511.772 1304.85 512.033C1304.52 512.183 1304.21 512.327 1303.88 512.464C1302.74 512.943 1301.61 513.402 1300.47 513.834L1300.42 513.853C1300.15 513.965 1299.87 514.077 1299.59 514.175C1298.82 514.465 1298.06 514.735 1297.29 515.012C1297.26 515.023 1297.24 515.029 1297.21 515.029C1299.72 516.095 1302.3 516.983 1304.93 517.687L1304.99 517.709C1305 517.713 1305.01 517.713 1305.02 517.71C1318.02 521.178 1331.78 519.977 1343.93 514.315Z" fill="#2B2875"/>
<path d="M1306.74 511.19C1322.9 503.703 1336.72 491.952 1346.73 477.182C1356.75 462.411 1362.59 445.17 1363.63 427.282C1363.65 427.255 1363.65 427.224 1363.64 427.195L1363.65 427.175C1363.7 426.292 1363.74 425.415 1363.77 424.538C1360.55 420.634 1356.83 417.177 1352.7 414.257C1349.72 412.142 1346.55 410.311 1343.24 408.787C1342.96 409.496 1342.67 410.19 1342.37 410.891L1342.37 410.911C1342.35 410.917 1342.35 410.937 1342.34 410.957L1342.35 410.971C1332.83 433.486 1315.32 451.604 1293.21 461.819C1283.69 466.236 1273.53 469.108 1263.1 470.327L1263.1 470.313C1263.07 470.326 1263.04 470.325 1263.01 470.337L1263 470.323C1262.98 470.326 1262.95 470.332 1262.93 470.341C1261.98 470.451 1261.02 470.548 1260.07 470.624L1267.13 485.843C1273.21 498.983 1283.94 509.395 1297.22 515.03C1298.29 514.663 1299.36 514.268 1300.43 513.854C1302.55 513.051 1304.65 512.161 1306.74 511.19Z" fill="#2B2875"/>
<g style="mix-blend-mode:multiply" opacity="0.15">
<g style="mix-blend-mode:multiply" opacity="0.15">
<path d="M1352.7 414.259C1349.72 412.144 1346.55 410.313 1343.23 408.789C1336.45 425.847 1325.09 440.655 1310.41 451.57C1295.73 462.486 1278.31 469.082 1260.07 470.626C1260.07 470.626 1307.79 477.305 1352.7 414.259Z" fill="#2B2875"/>
</g>
</g>
<g style="mix-blend-mode:multiply" opacity="0.15">
<g style="mix-blend-mode:multiply" opacity="0.15">
<path d="M1370.76 435.156C1368.82 431.375 1366.47 427.814 1363.77 424.537C1363.19 442.916 1357.55 460.743 1347.49 476.039C1337.42 491.335 1323.31 503.502 1306.74 511.189C1303.63 512.63 1300.45 513.912 1297.21 515.029C1297.21 515.029 1354.63 505.573 1370.76 435.156Z" fill="#2B2875"/>
</g>
</g>
<g style="mix-blend-mode:multiply" opacity="0.25">
<g style="mix-blend-mode:multiply" opacity="0.25">
<path d="M1313.27 508.685C1314.34 508.09 1315.47 507.469 1316.64 506.824C1317.79 506.157 1319.09 505.556 1320.27 504.729C1321.47 503.937 1322.73 503.106 1324.01 502.263C1325.33 501.454 1326.52 500.421 1327.82 499.457C1329.16 498.488 1330.44 497.444 1331.67 496.331C1332.92 495.205 1334.18 494.073 1335.48 492.908C1336.7 491.681 1337.9 490.412 1339.12 489.118C1340.38 487.872 1341.46 486.446 1342.61 485.082L1344.33 483.013C1344.89 482.307 1345.4 481.559 1345.93 480.832C1346.93 479.356 1348.06 477.938 1348.97 476.393C1349.91 474.868 1350.84 473.343 1351.76 471.824C1353.44 468.797 1354.97 465.683 1356.33 462.493C1357.6 459.517 1358.73 456.477 1359.7 453.385C1360.11 451.89 1360.5 450.434 1360.88 449.032C1361.07 448.334 1361.24 447.643 1361.42 446.965C1361.56 446.286 1361.69 445.599 1361.81 444.946C1362.06 443.62 1362.3 442.368 1362.53 441.155C1362.75 439.942 1362.82 438.785 1362.98 437.704C1363.2 435.532 1363.47 433.657 1363.49 432.076C1363.61 429.157 1363.64 427.408 1363.63 427.193C1363.64 427.223 1363.64 427.253 1363.63 427.28C1362.58 445.168 1356.74 462.409 1346.73 477.18C1336.71 491.95 1322.89 503.701 1306.74 511.188C1304.64 512.159 1302.54 513.049 1300.42 513.852C1300.78 513.736 1302.39 513.185 1304.95 512.263C1305.69 511.972 1306.47 511.742 1307.37 511.323C1308.22 510.948 1309.14 510.535 1310.13 510.092C1311.13 509.648 1312.16 509.183 1313.27 508.685Z" fill="#2B2875"/>
</g>
</g>
<g style="mix-blend-mode:multiply" opacity="0.25">
<g style="mix-blend-mode:multiply" opacity="0.25">
<path d="M1342.34 410.962L1342.35 410.977C1342.37 410.948 1342.36 410.933 1342.37 410.911C1342.35 410.918 1342.35 410.94 1342.34 410.962Z" fill="#2B2875"/>
</g>
</g>
<g style="mix-blend-mode:multiply" opacity="0.25">
<g style="mix-blend-mode:multiply" opacity="0.25">
<path d="M1263 470.332C1263.04 470.326 1263.07 470.322 1263.1 470.321L1263.09 470.307C1263.06 470.306 1263.03 470.319 1263 470.318C1262.97 470.32 1262.95 470.326 1262.92 470.336C1262.95 470.336 1262.98 470.335 1263 470.332Z" fill="#2B2875"/>
</g>
</g>
<g style="mix-blend-mode:multiply" opacity="0.25">
<g style="mix-blend-mode:multiply" opacity="0.25">
<path d="M1294.93 462.437C1297.82 461.124 1300.64 459.651 1303.37 458.025C1306.19 456.358 1308.92 454.545 1311.55 452.593C1312.88 451.597 1314.19 450.593 1315.43 449.521L1317.3 447.939C1317.9 447.382 1318.5 446.839 1319.1 446.281C1319.69 445.724 1320.29 445.181 1320.87 444.63C1321.43 444.058 1322 443.48 1322.54 442.914C1323.67 441.777 1324.7 440.604 1325.72 439.437C1326.76 438.291 1327.71 437.109 1328.62 435.939C1329.54 434.768 1330.41 433.59 1331.22 432.436C1332.05 431.304 1332.82 430.169 1333.53 429.032C1334.24 427.909 1334.93 426.825 1335.54 425.752C1336.14 424.679 1336.75 423.666 1337.26 422.67C1337.76 421.675 1338.24 420.711 1338.67 419.814C1339.54 418.005 1340.2 416.391 1340.8 415.089C1341.7 412.752 1342.22 411.288 1342.33 410.97C1332.82 433.485 1315.31 451.603 1293.2 461.818C1283.68 466.235 1273.52 469.107 1263.09 470.326C1263.28 470.318 1263.62 470.296 1264.1 470.271C1264.85 470.235 1265.98 470.178 1267.4 470.016C1271.33 469.611 1275.23 468.933 1279.08 467.989C1281.65 467.369 1284.2 466.619 1286.7 465.743C1289.5 464.801 1292.25 463.698 1294.93 462.437Z" fill="#2B2875"/>
</g>
</g>
<g style="mix-blend-mode:screen" opacity="0.4">
<g style="mix-blend-mode:screen" opacity="0.4">
<path d="M1306.74 511.188C1322.9 503.701 1336.72 491.951 1346.73 477.18C1356.74 462.409 1362.58 445.168 1363.63 427.28C1363.56 427.694 1363.29 429.374 1362.9 432.017C1362.75 433.56 1362.31 435.403 1361.87 437.507C1361.5 439.633 1360.83 441.978 1360.16 444.524C1359.98 445.168 1359.81 445.826 1359.64 446.485C1359.41 447.134 1359.2 447.798 1358.97 448.467C1358.53 449.827 1358.06 451.22 1357.6 452.66C1356.44 455.444 1355.39 458.447 1353.92 461.396C1352.63 464.424 1350.89 467.331 1349.27 470.369C1348.35 471.834 1347.44 473.299 1346.52 474.771C1345.62 476.264 1344.51 477.622 1343.52 479.058C1343.01 479.772 1342.53 480.507 1341.99 481.187L1340.34 483.212C1339.24 484.55 1338.21 485.951 1336.99 487.179C1335.83 488.428 1334.67 489.678 1333.53 490.921C1332.31 492.081 1331.1 493.236 1329.92 494.364C1328.78 495.54 1327.46 496.496 1326.29 497.537C1325.07 498.55 1323.95 499.613 1322.7 500.457C1320.28 502.229 1318.02 503.986 1315.78 505.341C1314.69 506.063 1313.63 506.753 1312.62 507.404C1311.57 508.006 1310.56 508.57 1309.63 509.103C1308.69 509.636 1307.81 510.13 1307 510.586C1306.24 511.038 1305.41 511.373 1304.72 511.726C1302.27 512.913 1300.76 513.682 1300.43 513.852C1302.55 513.05 1304.65 512.159 1306.74 511.188Z" fill="#2B2875"/>
</g>
</g>
<g style="mix-blend-mode:screen" opacity="0.4">
<g style="mix-blend-mode:screen" opacity="0.4">
<path d="M1293.21 461.819C1315.32 451.604 1332.82 433.486 1342.34 410.971C1342.36 410.945 1342.35 410.931 1342.36 410.911C1342.35 410.917 1342.34 410.937 1342.33 410.957C1342.17 411.267 1341.42 412.637 1340.27 414.859C1339.56 416.083 1338.75 417.598 1337.71 419.274C1336.66 420.949 1335.47 422.841 1334.09 424.821C1333.43 425.839 1332.69 426.847 1331.9 427.887C1331.12 428.928 1330.33 430.022 1329.45 431.093C1328.6 432.184 1327.71 433.289 1326.74 434.37C1325.76 435.451 1324.83 436.594 1323.78 437.659C1322.75 438.765 1321.71 439.878 1320.58 440.934C1319.49 442.018 1318.35 443.094 1317.17 444.135C1316.58 444.672 1315.99 445.196 1315.4 445.733L1313.56 447.249C1312.35 448.275 1311.07 449.233 1309.78 450.176C1307.24 452.1 1304.61 453.891 1301.88 455.544C1299.19 457.173 1296.5 458.721 1293.8 460.055C1285.4 464.277 1276.5 467.427 1267.31 469.431C1265.06 469.928 1263.57 470.222 1263.09 470.313C1263.06 470.312 1263.03 470.325 1263 470.324C1262.97 470.326 1262.95 470.332 1262.92 470.341C1262.95 470.342 1262.98 470.34 1263 470.337C1263.04 470.331 1263.07 470.328 1263.1 470.327C1273.53 469.108 1283.69 466.237 1293.21 461.819Z" fill="#2B2875"/>
</g>
</g>
<g style="mix-blend-mode:multiply" opacity="0.25">
<g style="mix-blend-mode:multiply" opacity="0.25">
<path d="M1343.93 514.315C1357.81 507.876 1368.55 496.143 1373.77 481.698C1379 467.253 1378.29 451.278 1371.8 437.288C1371.8 437.288 1371.97 437.77 1372.29 438.678C1372.65 439.588 1373.05 440.942 1373.58 442.649C1374.07 444.374 1374.59 446.482 1375.06 448.911C1375.52 451.632 1375.83 454.378 1375.98 457.133C1376.12 460.38 1376 463.631 1375.63 466.856C1375.2 470.429 1374.46 473.955 1373.42 477.396C1372.29 481.061 1370.82 484.608 1369.02 487.986C1367.19 491.477 1364.99 494.757 1362.45 497.768C1359.94 500.808 1357.12 503.574 1354.04 506.022C1351.05 508.392 1347.84 510.467 1344.45 512.22C1341.27 513.859 1337.94 515.214 1334.52 516.268C1331.43 517.206 1328.27 517.89 1325.08 518.315C1322.35 518.672 1319.61 518.852 1316.86 518.852C1314.4 518.819 1312.24 518.696 1310.48 518.504C1308.71 518.313 1307.31 518.12 1306.37 517.942C1305.66 517.811 1305.21 517.737 1305.02 517.71C1318.02 521.178 1331.78 519.977 1343.93 514.315Z" fill="#2B2875"/>
</g>
</g>
<path d="M1194.9 1412.54C1081.95 1418.13 985.847 1331.09 980.259 1218.14C974.67 1105.18 1061.71 1009.09 1174.66 1003.5C1287.62 997.908 1383.71 1084.94 1389.3 1197.9C1394.89 1310.85 1307.85 1406.95 1194.9 1412.54Z" fill="#0E204C"/>
<path fill-rule="evenodd" clip-rule="evenodd" d="M1172.93 1003.6C1119.62 1006.92 1069.73 1030.93 1033.88 1070.51L1034.91 1071.45L1077.75 1069.33L1192.55 1063.65L1194.92 1064.5C1225.92 1066.5 1255.63 1078.51 1279.42 1098.98C1307.85 1123.44 1325.59 1158.03 1328.88 1195.38C1332.16 1232.74 1320.72 1269.9 1297 1298.94C1273.28 1327.98 1239.15 1346.6 1201.89 1350.83C1164.63 1355.07 1127.2 1344.58 1097.56 1321.61C1067.92 1298.63 1048.44 1264.99 1043.25 1227.85C1038.31 1192.41 1046.76 1156.45 1066.85 1126.98L996.108 1130.48C982.533 1163.69 977.805 1200.17 982.846 1236.28C990.228 1289.18 1017.98 1337.09 1060.19 1369.81C1102.4 1402.53 1155.72 1417.47 1208.78 1411.44C1261.84 1405.41 1310.45 1378.88 1344.24 1337.52C1378.02 1296.16 1394.31 1243.24 1389.64 1190.04C1384.96 1136.84 1359.68 1087.58 1319.2 1052.75C1278.72 1017.92 1226.23 1000.28 1172.93 1003.6Z" fill="#7CC242"/>
<path d="M1363.3 1324.51C1378.94 1302.64 1390.12 1277.9 1396.2 1251.7C1402.28 1225.51 1403.15 1198.37 1398.74 1171.84C1394.33 1145.32 1384.75 1119.92 1370.53 1097.09C1356.3 1074.27 1337.72 1054.47 1315.85 1038.83L1270.47 1102.29C1284 1111.98 1295.5 1124.23 1304.31 1138.36C1313.11 1152.48 1319.04 1168.21 1321.77 1184.63C1324.5 1201.05 1323.96 1217.84 1320.2 1234.06C1316.44 1250.27 1309.52 1265.58 1299.83 1279.12L1363.3 1324.51Z" fill="#F47A20"/>
<path d="M1363.3 1324.51C1365.96 1320.79 1368.5 1316.98 1370.9 1313.08L1304.54 1272.05C1303.05 1274.46 1301.48 1276.82 1299.83 1279.12L1363.3 1324.51Z" fill="#FDFDFD"/>
<path d="M1325.63 1046.27C1322.07 1043.39 1318.42 1040.63 1314.68 1038L1269.74 1101.78C1272.05 1103.41 1274.31 1105.12 1276.52 1106.9L1325.63 1046.27Z" fill="#FDFDFD"/>
<path d="M1396.12 1158.76C1395.08 1154.3 1393.89 1149.88 1392.55 1145.5L1317.94 1168.32C1318.77 1171.03 1319.51 1173.77 1320.15 1176.53L1396.12 1158.76Z" fill="#FDFDFD"/>
<path d="M1401.51 1204.35C1401.48 1199.77 1401.31 1195.2 1400.98 1190.63L1323.16 1196.26C1323.36 1199.08 1323.47 1201.91 1323.48 1204.75L1401.51 1204.35Z" fill="#FDFDFD"/>
<path d="M1396.9 1248.6C1397.87 1244.13 1398.68 1239.62 1399.35 1235.09L1322.15 1223.78C1321.74 1226.58 1321.23 1229.37 1320.63 1232.14L1396.9 1248.6Z" fill="#FDFDFD"/>
<path d="M1384.66 1286.73C1386.48 1282.53 1388.16 1278.27 1389.69 1273.96L1316.17 1247.83C1315.22 1250.5 1314.18 1253.14 1313.06 1255.74L1384.66 1286.73Z" fill="#FDFDFD"/>
<path d="M1327.02 1047.42C1323.49 1044.51 1319.86 1041.72 1316.15 1039.05L1270.65 1102.43C1272.95 1104.08 1275.19 1105.81 1277.38 1107.61L1327.02 1047.42Z" fill="#FDFDFD"/>
<path d="M1358.95 1080.42C1356.16 1076.8 1353.24 1073.27 1350.21 1069.84L1291.73 1121.49C1293.61 1123.61 1295.41 1125.8 1297.14 1128.04L1358.95 1080.42Z" fill="#FDFDFD"/>
<path d="M1382.11 1118.4C1380.16 1114.26 1378.08 1110.18 1375.86 1106.18L1307.61 1143.98C1308.98 1146.46 1310.27 1148.98 1311.48 1151.55L1382.11 1118.4Z" fill="#FDFDFD"/>
<path d="M1395.5 1156.15C1394.4 1151.71 1393.15 1147.3 1391.75 1142.94L1317.44 1166.74C1318.31 1169.44 1319.08 1172.16 1319.76 1174.91L1395.5 1156.15Z" fill="#FDFDFD"/>
<path d="M1216.3 1152.68C1248.73 1169.32 1261.57 1209.25 1244.93 1241.68C1228.28 1274.11 1188.36 1286.95 1155.93 1270.31C1123.5 1253.67 1110.65 1213.74 1127.3 1181.31C1143.94 1148.88 1183.87 1136.04 1216.3 1152.68ZM1156.79 1268.63C1188.28 1284.79 1227.07 1272.34 1243.25 1240.82C1259.41 1209.33 1246.96 1170.54 1215.43 1154.36C1183.95 1138.2 1145.15 1150.65 1128.98 1182.17C1112.8 1213.7 1125.3 1252.47 1156.79 1268.63Z" fill="white"/>
<path fill-rule="evenodd" clip-rule="evenodd" d="M1223.16 1139.31C1262.98 1159.74 1278.74 1208.74 1258.31 1248.56C1237.87 1288.37 1188.88 1304.14 1149.06 1283.7C1109.24 1263.26 1093.48 1214.27 1113.91 1174.45C1134.35 1134.63 1183.34 1118.87 1223.16 1139.31ZM1163.65 1255.26C1187.76 1267.63 1217.48 1258.08 1229.86 1233.96C1242.23 1209.85 1232.69 1180.13 1208.56 1167.75C1184.46 1155.38 1154.74 1164.92 1142.35 1189.05C1129.97 1213.17 1139.55 1242.89 1163.65 1255.26ZM1244.92 1241.69C1261.57 1209.26 1248.72 1169.33 1216.29 1152.69C1183.87 1136.05 1143.94 1148.89 1127.29 1181.32C1110.65 1213.75 1123.5 1253.67 1155.92 1270.32C1188.35 1286.96 1228.28 1274.12 1244.92 1241.69ZM1243.25 1240.83C1227.07 1272.35 1188.28 1284.8 1156.79 1268.64C1125.3 1252.48 1112.8 1213.7 1128.97 1182.18C1145.15 1150.66 1183.94 1138.21 1215.43 1154.37C1246.95 1170.54 1259.41 1209.34 1243.25 1240.83Z" fill="white"/>
<path d="M1158.57 1197.37C1166.38 1182.14 1185.02 1176.15 1200.25 1183.96C1215.47 1191.77 1221.47 1210.42 1213.66 1225.64C1205.84 1240.86 1187.2 1246.86 1171.98 1239.05C1156.75 1231.23 1150.76 1212.59 1158.57 1197.37Z" fill="white"/>
<path d="M1042.25 1218.62L1105.06 1215.51L1114.18 1399.88C1070.79 1383.33 1058.85 1369.26 1049.28 1360.73L1042.25 1218.62Z" fill="#0E204C"/>
</g>
<defs>
<clipPath id="clip0">
<rect width="2353" height="2353" fill="white" transform="translate(0.542969 0.142578)"/>
</clipPath>
</defs>
</svg>
